<?xml version="1.0" encoding="UTF-8" standalone="no"?>
<!-- Created with Inkscape (http://www.inkscape.org/) -->

<svg
   version="1.1"
   id="svg2"
   width="5333.3335"
   height="2666.6667"
   viewBox="0 0 5333.3335 2666.6667"
   sodipodi:docname="shutterstock_1986378524.eps"
   xmlns:inkscape="http://www.inkscape.org/namespaces/inkscape"
   xmlns:sodipodi="http://sodipodi.sourceforge.net/DTD/sodipodi-0.dtd"
   xmlns="http://www.w3.org/2000/svg"
   xmlns:svg="http://www.w3.org/2000/svg">
  <defs
     id="defs6" />
  <sodipodi:namedview
     id="namedview4"
     pagecolor="#ffffff"
     bordercolor="#000000"
     borderopacity="0.25"
     inkscape:showpageshadow="2"
     inkscape:pageopacity="0.0"
     inkscape:pagecheckerboard="0"
     inkscape:deskcolor="#d1d1d1" />
  <g
     id="g8"
     inkscape:groupmode="layer"
     inkscape:label="ink_ext_XXXXXX"
     transform="matrix(1.3333333,0,0,-1.3333333,0,2666.6667)">
    <g
       id="g10"
       transform="scale(0.1)">
      <path
         d="M 0,0 H 40000 V 20000 H 0 Z"
         style="fill:#ffffff;fill-opacity:1;fill-rule:nonzero;stroke:none"
         id="path12" />
      <path
         d="m 6876.2,8080.8 c 12309.3,-2355.4 16275.3,8075.1 12501.8,10480.1 -2035.7,1297.5 -3566.9,87 -5041.4,-1123.5 -1114.7,-915.1 -2197,-1830.3 -3440.4,-1661.7 -2887.95,391.4 -5519.23,3484.8 -8092.75,2650.5 C 229.934,17591.9 1069.99,9191.7 6876.2,8080.8"
         style="fill:#f5ebf7;fill-opacity:1;fill-rule:nonzero;stroke:none"
         id="path14" />
      <path
         d="m 8141.87,16891.7 c -18.61,24 -30.03,40.2 -30.03,40.2 h -0.19 c -5.78,1.3 -127.78,28 -300.03,78.7 l -0.84,0.3 c -8.41,2.4 -16.88,5 -25.54,7.5 -30.87,9.3 -63.16,19.2 -96.52,30 -475.43,152.2 -1169,449.3 -1069.97,866.5 135.99,573.2 1337.52,342.7 1701.28,-456.1 25.09,-55.1 46.21,-113 62.7,-173.5 5.97,-21.8 11.29,-44 16.04,-66.5 32.16,-153.1 47.37,-265.7 50.25,-346.5 12.9,-362 -222.24,-90 -307.15,19.4"
         style="fill:#cb4e47;fill-opacity:1;fill-rule:nonzero;stroke:none"
         id="path16" />
      <path
         d="m 8449.02,16872.3 -307.15,19.4 c -18.61,24 -30.03,40.2 -30.03,40.2 h -0.19 c -5.59,1.4 -148.32,36.5 -300.03,78.7 l -0.84,0.3 c -8.41,2.4 -16.88,5 -25.54,7.5 -30.87,9.3 -63.16,19.2 -96.52,30 88.88,131.8 385.25,222.6 691.76,241.8 0.77,-1.7 1.55,-3.4 2.25,-4.9 8.53,-18.6 12.2,-25.4 13.35,-27.5 -1.67,2.3 -6.8,6.3 2.69,-39 32.16,-153.1 47.37,-265.7 50.25,-346.5"
         style="fill:#0f0111;fill-opacity:1;fill-rule:nonzero;stroke:none"
         id="path18" />
      <path
         d="m 12731.7,17797.2 c 0,-829.4 -672.3,-1501.7 -1501.7,-1501.7 -829.4,0 -1501.79,672.3 -1501.79,1501.7 0,829.4 672.39,1501.8 1501.79,1501.8 829.4,0 1501.7,-672.4 1501.7,-1501.8"
         style="fill:#fbb574;fill-opacity:1;fill-rule:nonzero;stroke:none"
         id="path20" />
      <path
         d="m 12494.3,17797.2 c 0,-698.2 -566.1,-1264.3 -1264.3,-1264.3 -698.3,0 -1264.33,566.1 -1264.33,1264.3 0,698.3 566.03,1264.3 1264.33,1264.3 698.2,0 1264.3,-566 1264.3,-1264.3"
         style="fill:#fffbf8;fill-opacity:1;fill-rule:nonzero;stroke:none"
         id="path22" />
      <path
         d="m 11242.8,17784.4 h -693.1 v 25.7 h 667.4 v 1174.4 h 25.7 v -1200.1"
         style="fill:#0f0111;fill-opacity:1;fill-rule:nonzero;stroke:none"
         id="path24" />
      <path
         d="m 11230,16282.7 c -404.6,0 -784.9,157.5 -1071,443.6 -286.08,286 -443.62,666.4 -443.62,1070.9 0,404.6 157.54,785 443.62,1071 286.1,286.1 666.4,443.6 1071,443.6 v -25.6 c -821,0 -1488.95,-668 -1488.95,-1489 0,-820.9 667.95,-1488.9 1488.95,-1488.9 v -25.6"
         style="fill:#0f0111;fill-opacity:1;fill-rule:nonzero;stroke:none"
         id="path26" />
      <path
         d="m 11230,16282.7 v 25.6 c 821,0 1488.9,668 1488.9,1488.9 h 25.7 c 0,-404.5 -157.6,-784.9 -443.7,-1070.9 -286,-286.1 -666.4,-443.6 -1070.9,-443.6"
         style="fill:#0f0111;fill-opacity:1;fill-rule:nonzero;stroke:none"
         id="path28" />
      <path
         d="m 10002.8,16819.8 c 0,0 418.5,-562.8 219.6,-1230.3 -199,-667.4 1071.7,-1476.1 571.2,-2458 H 8739.88 v 2053.7 l 1262.92,1634.6"
         style="fill:#c64744;fill-opacity:1;fill-rule:nonzero;stroke:none"
         id="path30" />
      <path
         d="m 7944.08,15948.9 c 0,0 -342.01,-1049.8 -2342.48,-1065.3 -1655.79,-12.9 -1771.31,-1668.7 -1771.31,-1668.7 l 420.51,-161.3 c 31.91,202.1 123.97,570.9 381.72,751.8 0,0 -279.1,-301 -251.08,-802 l 3094.14,-1187.5 1084.6,3959.8 -616.1,173.2"
         style="fill:#cb4e47;fill-opacity:1;fill-rule:nonzero;stroke:none"
         id="path32" />
      <path
         d="m 6468.31,8757.8 c 0,0 -244.19,-824.7 18.94,-1139.1 h 5082.85 c 0,0 -663.3,913.9 -1242,1203 -578.71,289.1 -3859.79,-63.9 -3859.79,-63.9"
         style="fill:#0f0111;fill-opacity:1;fill-rule:nonzero;stroke:none"
         id="path34" />
      <path
         d="m 10573.8,12732.7 -235.5,-3904.5 c 0,0 -1259.27,-1235.1 -3869.99,-259.5 V 12876 l 4105.49,-143.3"
         style="fill:#638c80;fill-opacity:1;fill-rule:nonzero;stroke:none"
         id="path36" />
      <path
         d="m 13493.6,9140.4 -651,-670.7 c -3.9,-4 -9.4,-6 -15,-5.4 -57.5,5.8 -389.7,40.8 -791.2,115.2 -641.1,119.2 -1458.7,339.3 -1616.2,702.9 -124,286.2 -328,1043.5 -510.56,1770.8 -2.37,9.3 -4.68,18.6 -6.99,27.9 -10.14,40.3 -20.16,80.6 -30.1,120.7 -176.1,708.6 -324.81,1355.2 -349.64,1463.7 -2.05,9.2 -10.66,15.2 -19.96,14.2 l -533.44,-60.9 123.34,256 -474.91,256.7 -244.39,-580.5 -1304.47,-148.4 -53.59,-6.1 c -8.6,-1 -15.4,-7.9 -16.23,-16.5 l -126.95,-1333.2 -114.49,-1202.4 -1.67,-17.3 c -0.25,-3 0.19,-5.9 1.22,-8.5 1.6,-4 4.56,-7.4 8.47,-9.6 l 1788.31,-942.8 1.74,-1 393.4,-264.9 21.05,-14.2 c 0.9,-0.6 1.8,-1.1 2.76,-1.5 1.93,-0.8 4.05,-1.3 6.17,-1.3 176.59,-2.2 330.36,21.9 466.49,45.9 208.47,36.9 375.56,73.7 519.91,16.3 640.73,-254.8 881.63,-455.3 921.63,-577.9 3.9,-11.9 -5,-24 -17.5,-24 H 8712.28 c -1.22,0 -2.44,0.1 -3.59,0.4 -319.6,63.9 -617.51,125.3 -893.03,186 -1356.79,297.7 -2177.49,576.2 -2432.59,1052.4 -163.39,305 -125.47,1248.7 12.89,2183.1 9.06,61.1 18.55,122.2 28.44,183.1 6.8,41.9 13.8,83.7 20.99,125.4 122.58,711.4 297.97,1375.2 480.3,1695.8 50.19,88.1 141.89,171.4 260.04,248.8 184.39,121 432.83,227.7 686,317.1 131.57,46.5 264.41,88.3 390.27,124.9 378.45,110.1 693.63,173.9 719.81,179.1 1.16,0.2 2.31,0.4 3.53,0.4 h 918.38 l 2.45,-0.2 c 5.57,-0.7 30.28,-4.2 69.88,-10.2 177.52,-27.8 655.52,-111.4 1053.75,-262 200.8,-76 381.3,-169 492.8,-280.5 155.8,-155.8 321.6,-781.6 464.3,-1475.9 23.1,-112.8 45.7,-227.3 67.5,-342 21.2,-111.4 41.6,-222.8 61.3,-332.7 136.3,-763.1 232.4,-1453.9 245.1,-1545.4 0.8,-6.3 5,-11.8 10.9,-14.3 l 1264.7,-542 851.2,-364.8 c 11.8,-5.1 14.9,-20.5 6,-29.7"
         style="fill:#f79f72;fill-opacity:1;fill-rule:nonzero;stroke:none"
         id="path38" />
      <path
         d="m 11056.3,11959.3 c -0.6,3.2 -1.3,6.5 -1.9,10 -21.8,114.7 -44.4,229.2 -67.5,342 l -1070.52,-1284.9 -21.3,-25.6 c 0.83,-3.3 9.94,-0.5 25.86,7.5 169.96,84.6 1118.66,753.7 1165.96,787.1 l -30.6,163.9"
         style="fill:#0f0111;fill-opacity:1;fill-rule:nonzero;stroke:none"
         id="path40" />
      <path
         d="m 6872.31,11597.7 v -550.9 l -19.25,-238.5 -1457.09,657.2 c 9.05,61.1 18.55,122.2 28.43,183.1 6.8,41.9 13.8,83.7 20.99,125.4 l 278.14,131.7 1148.78,-308"
         style="fill:#0f0111;fill-opacity:1;fill-rule:nonzero;stroke:none"
         id="path42" />
      <path
         d="m 10029.8,14067.7 v -628.1 l -1931.7,-353 -1226.37,949.1 c 131.57,46.5 264.41,88.3 390.27,124.9 378.45,110.1 693.63,173.9 719.81,179.1 1.16,0.2 2.31,0.4 3.53,0.4 h 918.39 l 2.43,-0.2 c 5.59,-0.7 30.3,-4.2 69.89,-10.2 177.52,-27.8 655.51,-111.4 1053.75,-262"
         style="fill:#638c80;fill-opacity:1;fill-rule:nonzero;stroke:none"
         id="path44" />
      <path
         d="m 11054.4,11969.3 -973.2,-1039.1 c -610.85,677.1 -981.35,1188.2 -1007.6,1302.8 -2.05,9.2 -271.34,366.8 -271.34,366.8 l -704.16,1282.6 766.03,457.7 h 39.6 l 2.43,-0.2 c 5.59,-0.7 30.3,-4.2 69.89,-10.2 266.98,-41.8 1213.75,-209.8 1546.55,-542.5 181.2,-181.1 375.7,-997.4 531.8,-1817.9"
         style="fill:#638c80;fill-opacity:1;fill-rule:nonzero;stroke:none"
         id="path46" />
      <path
         d="m 8906.74,13535.8 -102.68,-930.5 -705.96,-712.4 -1082.61,503.6 c -8.6,-1 127.2,-109.9 126.37,-118.5 l -237.46,-1501.8 -1480,872.4 c 123.03,758 308.31,1481.8 501.29,1821.2 50.19,88.1 141.9,171.4 260.05,248.8 280.2,183.8 708.2,334.8 1076.26,442 l 1644.74,-624.8"
         style="fill:#638c80;fill-opacity:1;fill-rule:nonzero;stroke:none"
         id="path48" />
      <path
         d="m 15853,9787.9 c 0,-141.8 -115,-256.7 -256.8,-256.7 -141.7,0 -256.7,114.9 -256.7,256.7 0,141.8 115,256.7 256.7,256.7 141.8,0 256.8,-114.9 256.8,-256.7"
         style="fill:#6e4f72;fill-opacity:1;fill-rule:nonzero;stroke:none"
         id="path50" />
      <path
         d="m 9058.59,14555.1 v -630.5 c 0,-121.5 -44.48,-238.8 -125.02,-329.8 -98.65,-111.6 -235.66,-168 -373,-168 -124.89,0 -250.1,46.6 -347.14,141.1 -174.57,169.8 -268.72,400.5 -268.72,636.5 0,66.9 7.58,134.3 23.05,200.9 14.05,60.5 28.49,120.9 39.72,182 l 130.79,713.1 39.79,217.1 880.53,-962.4"
         style="fill:#f79f72;fill-opacity:1;fill-rule:nonzero;stroke:none"
         id="path52" />
      <path
         d="m 8560.03,13413.9 c -133.63,0 -259.23,51 -355.58,144.8 -241.03,234.6 -278.4,479 -260.35,773.7 l 25.62,-1.5 c -17.61,-287.8 18.61,-526.1 252.64,-753.8 95.98,-93.5 222.57,-142.2 356.42,-137.2 133.85,5 256.44,63 345.19,163.4 78.51,88.7 121.75,202.8 121.75,321.3 v 630.5 h 25.67 v -630.5 c 0,-124.7 -45.53,-244.9 -128.19,-338.3 -93.44,-105.7 -222.53,-166.8 -363.47,-172 -6.58,-0.3 -13.16,-0.4 -19.7,-0.4"
         style="fill:#0f0111;fill-opacity:1;fill-rule:nonzero;stroke:none"
         id="path54" />
      <path
         d="m 9058.59,14555.1 v -544.9 c -877.06,494.7 -880.53,1507.3 -880.53,1507.3 l 880.53,-962.4"
         style="fill:#0f0111;fill-opacity:1;fill-rule:nonzero;stroke:none"
         id="path56" />
      <path
         d="m 8208.79,15261.5 c 213.34,-523.6 583.84,-1034.1 1013.57,-1034.1 429.74,0 664.38,582.4 819.04,1126.2 317.4,1116 -379.07,1177.4 -808.8,1177.4 -429.73,0 -1361.67,-440.2 -1023.81,-1269.5"
         style="fill:#f79f72;fill-opacity:1;fill-rule:nonzero;stroke:none"
         id="path58" />
      <path
         d="m 9805.23,16532.9 c 0,0 -57.76,-449.2 314.47,-988.3 83.9,-121.6 77,635.4 77,635.4 l -134.8,397.9 -256.67,-45"
         style="fill:#c64744;fill-opacity:1;fill-rule:nonzero;stroke:none"
         id="path60" />
      <path
         d="m 7854.23,15653.7 c 0,0 1555.3,73.2 2169.17,789.4 115.6,134.8 102.7,288.8 32.1,378.6 -824.29,1049.2 -3433.48,436.4 -2201.27,-1168"
         style="fill:#cb4e47;fill-opacity:1;fill-rule:nonzero;stroke:none"
         id="path62" />
      <path
         d="m 9758.7,15354.9 v 0 c 33.56,-5 64.8,18.2 69.78,51.7 l 15.02,101.3 c 4.98,33.5 -18.19,64.8 -51.75,69.8 -33.56,5 -64.8,-18.2 -69.78,-51.8 l -15.02,-101.3 c -4.98,-33.5 18.19,-64.8 51.75,-69.7"
         style="fill:#0a010c;fill-opacity:1;fill-rule:nonzero;stroke:none"
         id="path64" />
      <path
         d="m 9123.94,15477.7 v 0 c 33.56,-5 64.8,18.2 69.78,51.8 l 15.02,101.3 c 4.98,33.5 -18.2,64.8 -51.76,69.7 -33.55,5 -64.79,-18.2 -69.77,-51.7 l -15.02,-101.3 c -4.98,-33.6 18.19,-64.8 51.75,-69.8"
         style="fill:#0a010c;fill-opacity:1;fill-rule:nonzero;stroke:none"
         id="path66" />
      <path
         d="m 8950.88,15664.8 c -4.03,0.2 -8.09,1.1 -12.04,2.7 -19.73,7.9 -29.3,30.4 -21.36,50.1 3.44,8.6 88.01,209.3 399.59,145.4 20.83,-4.3 34.25,-24.6 29.98,-45.5 -4.28,-20.8 -24.61,-34.2 -45.46,-30 -249.29,51.2 -312.05,-97.1 -312.66,-98.6 -6.35,-15.8 -21.96,-25.1 -38.05,-24.1"
         style="fill:#c64744;fill-opacity:1;fill-rule:nonzero;stroke:none"
         id="path68" />
      <path
         d="m 9989.57,15509.4 -1.16,0.1 c -21.13,0.6 -37.78,18.1 -37.36,39.2 0.02,6.2 -2.2,132.8 -202.74,175.4 -20.81,4.4 -34.09,24.8 -29.67,45.6 4.42,20.8 24.86,34.1 45.67,29.7 266.39,-56.6 263.99,-244.6 263.69,-252.6 -0.6,-20.9 -17.7,-37.4 -38.43,-37.4"
         style="fill:#c64744;fill-opacity:1;fill-rule:nonzero;stroke:none"
         id="path70" />
      <path
         d="m 3746.74,13925.5 -25.42,3.6 c 56.96,405.1 298.59,689.4 738.67,869.3 406.28,166 981.07,248.2 1808.89,258.5 793.58,9.8 1231.23,301.4 1458.63,544.3 246.35,263.1 306.13,527.5 306.71,530.2 l 25.08,-5.5 c -0.58,-2.7 -61.4,-272.9 -312.01,-541.1 -147.02,-157.4 -329.68,-283.5 -542.92,-375 -266.05,-114.1 -580.69,-174.2 -935.17,-178.6 -824.49,-10.3 -1396.3,-91.8 -1799.5,-256.6 -430.9,-176.1 -667.38,-453.8 -722.96,-849.1"
         style="fill:#cb4e47;fill-opacity:1;fill-rule:nonzero;stroke:none"
         id="path72" />
      <path
         d="m 9065.03,14902.5 c -0.93,-3.3 -2.12,-6.5 -2.91,-9.9 -30.95,-132.1 66.68,-268 218.08,-303.4 151.39,-35.5 299.22,42.9 330.18,175 0.78,3.3 1.13,6.7 1.75,10.1 l -547.1,128.2"
         style="fill:#fcfcfc;fill-opacity:1;fill-rule:nonzero;stroke:none"
         id="path74" />
      <path
         d="m 8587.6,15804.1 c 0,-248.8 -201.69,-450.5 -450.47,-450.5 -248.8,0 -450.49,201.7 -450.49,450.5 0,248.8 201.69,450.5 450.49,450.5 248.78,0 450.47,-201.7 450.47,-450.5"
         style="fill:#6e4f72;fill-opacity:1;fill-rule:nonzero;stroke:none"
         id="path76" />
      <path
         d="m 8781.21,14881 c -642.46,269.4 -715.65,907.4 -716.31,913.8 l 61.09,6.3 c 0.65,-6 70.94,-608.5 678.97,-863.4 l -23.75,-56.7"
         style="fill:#6e4f72;fill-opacity:1;fill-rule:nonzero;stroke:none"
         id="path78" />
      <path
         d="m 7842.03,16994.6 c -64.84,0 -195.69,3.8 -346.5,28.8 -198.31,33 -472.92,110.6 -655,293.3 -143.23,143.7 -210.27,331.5 -199.24,558.2 l 25.64,-1.3 c -10.66,-219.1 53.85,-400.4 191.73,-538.7 339.72,-340.9 1018.7,-314.3 1025.53,-314 l 1.17,-25.6 c -0.51,0 -16.1,-0.7 -43.33,-0.7"
         style="fill:#cb4e47;fill-opacity:1;fill-rule:nonzero;stroke:none"
         id="path80" />
      <path
         d="m 8403.31,15824.6 c 0,-169.6 -137.51,-307.1 -307.14,-307.1 -169.63,0 -307.14,137.5 -307.14,307.1 0,169.6 137.51,307.2 307.14,307.2 169.63,0 307.14,-137.6 307.14,-307.2"
         style="fill:#6e4f72;fill-opacity:1;fill-rule:nonzero;stroke:none"
         id="path82" />
      <path
         d="m 8096.17,15517.5 c -169.63,0 -307.14,137.5 -307.14,307.1 0,169.6 137.51,307.2 307.14,307.2 169.63,0 307.14,-137.6 307.14,-307.2 0,-132 -83.31,-244.6 -200.22,-288 -19.12,-7.1 -39.15,-12.4 -59.86,-15.6 -15.35,-2.3 -31.05,-3.5 -47.06,-3.5"
         style="fill:#4d3251;fill-opacity:1;fill-rule:nonzero;stroke:none"
         id="path84" />
      <path
         d="m 9017.73,14815.8 c -15.65,-42.5 -97.14,-51.5 -182.03,-20.2 -84.89,31.3 -141.01,91.1 -125.36,133.5 15.64,42.5 97.14,51.5 182.02,20.2 84.89,-31.3 141.02,-91.1 125.37,-133.5"
         style="fill:#6e4f72;fill-opacity:1;fill-rule:nonzero;stroke:none"
         id="path86" />
      <path
         d="m 2341.48,16899.1 231.97,-33.3 -167.5,-163.9 40.05,-230.9 -207.64,108.7 -207.22,-109.4 39.19,231 -168.12,163.3 231.84,34.1 103.32,210.3 104.11,-209.9"
         style="fill:#fbb574;fill-opacity:1;fill-rule:nonzero;stroke:none"
         id="path88" />
      <path
         d="m 3266.07,16899.1 231.97,-33.3 -167.51,-163.9 40.05,-230.9 -207.63,108.7 -207.22,-109.4 39.18,231 -168.12,163.3 231.85,34.1 103.32,210.3 104.11,-209.9"
         style="fill:#fbb574;fill-opacity:1;fill-rule:nonzero;stroke:none"
         id="path90" />
      <path
         d="m 4190.65,16899.1 231.98,-33.3 -167.51,-163.9 40.05,-230.9 -207.63,108.7 -207.22,-109.4 39.18,231 -168.12,163.3 231.85,34.1 103.32,210.3 104.1,-209.9"
         style="fill:#fbb574;fill-opacity:1;fill-rule:nonzero;stroke:none"
         id="path92" />
      <path
         d="m 5115.24,16899.1 231.97,-33.3 -167.5,-163.9 40.05,-230.9 -207.64,108.7 -207.22,-109.4 39.18,231 -168.11,163.3 231.84,34.1 103.32,210.3 104.11,-209.9"
         style="fill:#fbb574;fill-opacity:1;fill-rule:nonzero;stroke:none"
         id="path94" />
      <path
         d="m 6039.82,16899.1 231.98,-33.3 -167.51,-163.9 40.05,-230.9 -207.63,108.7 -207.22,-109.4 39.18,231 -168.12,163.3 231.85,34.1 103.32,210.3 104.1,-209.9"
         style="fill:#fbb574;fill-opacity:1;fill-rule:nonzero;stroke:none"
         id="path96" />
      <path
         d="m 1914.85,17656 c -154.08,0 -279.43,-125.3 -279.43,-279.4 v -1173.9 c 0,-154.1 125.35,-279.4 279.43,-279.4 h 4344.31 c 154.07,0 279.43,125.3 279.43,279.4 v 1173.9 c 0,154.1 -125.36,279.4 -279.43,279.4 z M 6259.16,15897.6 H 1914.85 c -168.23,0 -305.1,136.8 -305.1,305.1 v 1173.9 c 0,168.3 136.87,305.1 305.1,305.1 h 4344.31 c 168.23,0 305.1,-136.8 305.1,-305.1 v -1173.9 c 0,-168.3 -136.87,-305.1 -305.1,-305.1"
         style="fill:#0f0111;fill-opacity:1;fill-rule:nonzero;stroke:none"
         id="path98" />
      <path
         d="m 976.469,8039 c -264.59,-1.1 -480.203,213.8 -480.203,478.2 0,264.3 215.613,479.2 480.203,478.1 l 0.051,-0.1 v -956.1 z m 0.051,1376.6 v -324.1 h -2.129 C 657.672,9091.5 400,8833.9 400,8517.2 c 0,-316.8 257.672,-574.4 574.391,-574.4 h 2.129 v -129.2 c 0,-107.7 87.27,-194.9 194.94,-194.9 h 985.68 c 107.66,0 194.94,87.2 194.94,194.9 v 1602 H 976.52"
         style="fill:#638c80;fill-opacity:1;fill-rule:nonzero;stroke:none"
         id="path100" />
      <path
         d="m 2187.34,7836.9 h -25.67 v 1411.9 h 25.67 V 7836.9"
         style="fill:#ffffff;fill-opacity:1;fill-rule:nonzero;stroke:none"
         id="path102" />
      <path
         d="m 11116.5,9977.2 -16.9,19.3 c 4.3,3.8 107.8,92.9 258.2,99.4 l 1.1,-25.6 c -141.1,-6.2 -241.4,-92.3 -242.4,-93.1"
         style="fill:#0f0111;fill-opacity:1;fill-rule:nonzero;stroke:none"
         id="path104" />
      <path
         d="m 4737.43,9160 -199.63,67.9 459.43,1351.2 199.63,-67.9 L 4737.43,9160"
         style="fill:#6e4f72;fill-opacity:1;fill-rule:nonzero;stroke:none"
         id="path106" />
      <path
         d="m 5197.28,10512.4 -199.63,67.9 79.29,69.4 43.54,38.2 35.77,31.3 9.25,-46.6 11.26,-56.8 20.52,-103.4"
         style="fill:#fbb574;fill-opacity:1;fill-rule:nonzero;stroke:none"
         id="path108" />
      <path
         d="m 5165.5,10672.6 -45.02,15.3 35.77,31.3 z"
         style="fill:#6e4f72;fill-opacity:1;fill-rule:nonzero;stroke:none"
         id="path110" />
      <path
         d="m 4606.36,9269.8 -2.43,0.8 421.76,1240.4 2.44,-0.8 -421.77,-1240.4"
         style="fill:#100711;fill-opacity:1;fill-rule:nonzero;stroke:none"
         id="path112" />
      <path
         d="m 4658.7,9252 -2.43,0.8 421.76,1240.4 2.44,-0.8 L 4658.7,9252"
         style="fill:#100711;fill-opacity:1;fill-rule:nonzero;stroke:none"
         id="path114" />
      <path
         d="m 4708.61,9235 -2.43,0.8 421.76,1240.4 2.44,-0.8 L 4708.61,9235"
         style="fill:#100711;fill-opacity:1;fill-rule:nonzero;stroke:none"
         id="path116" />
      <path
         d="m 4018.73,9400.2 -193.94,-82.8 -560.1,1312.6 193.94,82.8 560.1,-1312.6"
         style="fill:#cb4e47;fill-opacity:1;fill-rule:nonzero;stroke:none"
         id="path118" />
      <path
         d="m 3458.13,10714 -193.95,-82.8 12.66,104.7 6.94,57.4 5.71,47.2 38.02,-28.5 46.3,-34.7 84.32,-63.3"
         style="fill:#fbb574;fill-opacity:1;fill-rule:nonzero;stroke:none"
         id="path120" />
      <path
         d="m 3327.51,10812 -43.73,-18.7 5.71,47.2 z"
         style="fill:#cb4e47;fill-opacity:1;fill-rule:nonzero;stroke:none"
         id="path122" />
      <path
         d="m 3847.87,9394.4 -2.36,-1.1 -514.19,1205.1 2.37,1 514.18,-1205"
         style="fill:#100711;fill-opacity:1;fill-rule:nonzero;stroke:none"
         id="path124" />
      <path
         d="m 3898.72,9416 -2.36,-1 -514.19,1205.1 2.37,1 514.18,-1205.1"
         style="fill:#100711;fill-opacity:1;fill-rule:nonzero;stroke:none"
         id="path126" />
      <path
         d="m 3947.21,9436.7 -2.37,-1 -514.18,1205 2.36,1.1 514.19,-1205.1"
         style="fill:#100711;fill-opacity:1;fill-rule:nonzero;stroke:none"
         id="path128" />
      <path
         d="M 4712.1,8131.8 H 3733.17 L 3416.15,9946.4 H 5029.13 L 4712.1,8131.8"
         style="fill:#fbb574;fill-opacity:1;fill-rule:nonzero;stroke:none"
         id="path130" />
      <path
         d="M 4767.29,9678.8 H 3644.18 v 25.6 h 1123.11 v -25.6"
         style="fill:#0f0111;fill-opacity:1;fill-rule:nonzero;stroke:none"
         id="path132" />
      <path
         d="m 4600.42,8234.8 h -770.13 v 25.6 h 770.13 v -25.6"
         style="fill:#0f0111;fill-opacity:1;fill-rule:nonzero;stroke:none"
         id="path134" />
      <path
         d="m 20666.7,8763.3 -31,8.3 c 189.2,706.3 2.1,1351.8 0.2,1358.3 l 30.7,9.1 c 0.5,-1.6 48.9,-166.4 72.8,-417 22.1,-231.1 27.4,-585.1 -72.7,-958.7"
         style="fill:#638c80;fill-opacity:1;fill-rule:nonzero;stroke:none"
         id="path136" />
      <path
         d="m 20182.4,12778.7 c 0,0 -873.3,1421.5 -314.2,1589.3 117.1,35.2 244.2,-4.1 324.5,-96.4 141.3,-162.3 364.6,-540.7 418.4,-1341.9 0,0 214.3,563.4 423.8,396.2 209.4,-167.2 235.8,-456.1 -167.9,-1456.6 0,0 273.9,385.5 366.1,29.5 92.3,-356.1 -516.1,-2118.4 -516.1,-2118.4 0,0 -1187.7,1199.9 -1149.1,1735.4 24.4,338.6 718.3,-105.5 718.3,-105.5 0,0 -880,1162.9 -756,1503.8 107.1,294.4 652.2,-135.4 652.2,-135.4"
         style="fill:#638c80;fill-opacity:1;fill-rule:nonzero;stroke:none"
         id="path138" />
      <path
         d="m 20453.7,12160.6 c -201.3,327.2 -671.1,526.9 -675.8,528.8 l 7.5,17.8 c 4.7,-2 480.1,-204 684.7,-536.5 l -16.4,-10.1"
         style="fill:#0f0111;fill-opacity:1;fill-rule:nonzero;stroke:none"
         id="path140" />
      <path
         d="m 20619.1,12119.6 -19.1,2.3 c 0.7,6.3 80.7,629.1 368.7,904.3 l 13.3,-13.9 c -283,-270.4 -362.2,-886.6 -362.9,-892.7"
         style="fill:#0f0111;fill-opacity:1;fill-rule:nonzero;stroke:none"
         id="path142" />
      <path
         d="m 20600.4,10705.9 c -85.3,268.8 -303.8,435.9 -472,528.8 -182.8,100.8 -347.2,138.2 -348.9,138.6 l 4.2,18.8 c 1.7,-0.4 168.8,-38.4 354,-140.6 171.3,-94.5 393.8,-264.9 481,-539.8 l -18.3,-5.8"
         style="fill:#0f0111;fill-opacity:1;fill-rule:nonzero;stroke:none"
         id="path144" />
      <path
         d="m 20773.2,10766.1 -19.3,1 c 1.6,29 41.2,712.2 259,974.7 l 14.8,-12.3 c -213.7,-257.7 -254.2,-956.4 -254.5,-963.4"
         style="fill:#0f0111;fill-opacity:1;fill-rule:nonzero;stroke:none"
         id="path146" />
      <path
         d="m 21441.9,7695.2 h -1600.6 c -812.2,329.5 0,1440.5 0,1440.5 h 1600.6 c 0,0 812.2,-1111 0,-1440.5"
         style="fill:#fbb574;fill-opacity:1;fill-rule:nonzero;stroke:none"
         id="path148" />
      <path
         d="m 20573.7,7695.2 h -732.4 c -270.5,109.7 -360.8,306.1 -361,519.3 -0.3,426.9 361,921.2 361,921.2 h 4.6 c -97.4,-244.3 -93.1,-1433.6 727.8,-1440.5"
         style="fill:#f99c56;fill-opacity:1;fill-rule:nonzero;stroke:none"
         id="path150" />
      <path
         d="m 21468.7,9131.9 h -1655.1 v 68.9 h 1655.1 v -68.9"
         style="fill:#fbb574;fill-opacity:1;fill-rule:nonzero;stroke:none"
         id="path152" />
      <path
         d="m 21518.5,7621.4 h -1762.3 v 81.4 h 1762.3 v -81.4"
         style="fill:#fbb574;fill-opacity:1;fill-rule:nonzero;stroke:none"
         id="path154" />
      <path
         d="m 21527.6,7854.4 -19.9,16.3 c 185.3,227.5 146,510.7 80.4,708.2 -71.6,215.4 -188.8,378.3 -190,380 l 20.8,15 c 1.2,-1.6 120.8,-167.8 193.6,-386.9 96.9,-292 67.6,-545.3 -84.9,-732.6"
         style="fill:#fff5f3;fill-opacity:1;fill-rule:nonzero;stroke:none"
         id="path156" />
      <path
         d="m 20718.6,9948.2 -19.2,0.2 c 15.5,1215.1 -144,2180.8 -280.5,2777 -147.9,645.6 -301.2,1008.5 -302.8,1012 l 17.7,7.6 c 1.6,-3.6 155.6,-368 303.9,-1015.3 136.7,-597.2 296.5,-1564.6 280.9,-2781.5"
         style="fill:#0f0111;fill-opacity:1;fill-rule:nonzero;stroke:none"
         id="path158" />
      <path
         d="m 10874.1,8014.1 c -203.2,213.1 -432.2,310.6 -588.5,354.9 -169.6,48 -292.75,45.5 -293.93,45.5 l -0.66,25.6 c 5.11,0.2 127.49,2.7 300.69,-46.2 159.6,-45 393.5,-144.5 601,-362 l -18.6,-17.8"
         style="fill:#0f0111;fill-opacity:1;fill-rule:nonzero;stroke:none"
         id="path160" />
      <path
         d="m 10719.5,8014.8 c -199.1,242.7 -633.9,245.6 -638.3,245.6 v 25.7 c 18.3,0 451.3,-2.9 658.1,-255 l -19.8,-16.3"
         style="fill:#0f0111;fill-opacity:1;fill-rule:nonzero;stroke:none"
         id="path162" />
      <path
         d="m 10515.4,8013.5 c -135.7,123.3 -494.3,112.3 -497.9,112.2 l -0.9,25.6 c 15.1,0.5 372.6,11.6 516.1,-118.8 l -17.3,-19"
         style="fill:#0f0111;fill-opacity:1;fill-rule:nonzero;stroke:none"
         id="path164" />
      <path
         d="m 8973.1,8584.6 c -24.9,-13.1 -101.46,-61.5 -111.35,-145.9 l -25.54,2.9 c 10.01,85.1 76.18,136.5 113.08,158.7 l 21.05,-14.2 c 0.9,-0.6 1.8,-1.1 2.76,-1.5"
         style="fill:#0f0111;fill-opacity:1;fill-rule:nonzero;stroke:none"
         id="path166" />
      <path
         d="M 7174.74,7613.6 H 11700 v 430 H 7174.74 Z"
         style="fill:#6e4f72;fill-opacity:1;fill-rule:nonzero;stroke:none"
         id="path168" />
      <path
         d="M 11700,7613.6 H 7174.74 v 430 H 11564 l -181.4,-426.2 h 317.4 v -3.8"
         style="fill:#9b779f;fill-opacity:1;fill-rule:nonzero;stroke:none"
         id="path170" />
      <path
         d="m 11382.6,7617.4 h 5938.1 l 1924.4,4341 H 13230 l -1847.4,-4341"
         style="fill:#6e4f72;fill-opacity:1;fill-rule:nonzero;stroke:none"
         id="path172" />
      <path
         d="M 22191.5,7596.2 H 916.633 v 25.7 H 22191.5 v -25.7"
         style="fill:#000000;fill-opacity:1;fill-rule:nonzero;stroke:none"
         id="path174" />
      <path
         d="m 11394.4,7612.4 -23.6,10.1 1850.7,4348.7 h 6023.6 v -25.6 H 13238.5 L 11394.4,7612.4"
         style="fill:#0f0111;fill-opacity:1;fill-rule:nonzero;stroke:none"
         id="path176" />
      <path
         d="m 10601,7817.6 h -391.5 v 25.7 h 391.5 v -25.7"
         style="fill:#0f0111;fill-opacity:1;fill-rule:nonzero;stroke:none"
         id="path178" />
      <path
         d="m 11172.2,7817.6 h -391.5 v 25.7 h 391.5 v -25.7"
         style="fill:#0f0111;fill-opacity:1;fill-rule:nonzero;stroke:none"
         id="path180" />
      <path
         d="m 9946.42,7894.6 c -35.39,0 -64.18,-28.8 -64.18,-64.1 0,-35.4 28.79,-64.2 64.18,-64.2 35.39,0 64.18,28.8 64.18,64.2 0,35.3 -28.79,64.1 -64.18,64.1 z m 0,-154 c -49.54,0 -89.85,40.3 -89.85,89.9 0,49.5 40.31,89.8 89.85,89.8 49.54,0 89.88,-40.3 89.88,-89.8 0,-49.6 -40.34,-89.9 -89.88,-89.9"
         style="fill:#0f0111;fill-opacity:1;fill-rule:nonzero;stroke:none"
         id="path182" />
      <path
         d="m 15596.2,9531.2 c -141.7,0 -256.7,114.9 -256.7,256.7 0,141.8 115,256.7 256.7,256.7 141.8,0 256.8,-114.9 256.8,-256.7 0,-141.8 -115,-256.7 -256.8,-256.7"
         style="fill:#2f1833;fill-opacity:1;fill-rule:nonzero;stroke:none"
         id="path184" />
      <path
         d="m 9354.9,14422.2 c -77.82,96 -258.52,48.7 -260.34,48.2 l -6.69,24.8 c 8.06,2.1 198.61,52.2 286.97,-56.8 l -19.94,-16.2"
         style="fill:#0f0111;fill-opacity:1;fill-rule:nonzero;stroke:none"
         id="path186" />
      <path
         d="m 14252.5,16744.5 c -131.9,0 -239.2,-107.4 -239.2,-239.3 v -1870.4 c 0,-131.9 107.3,-239.2 239.2,-239.2 h 4848.3 c 131.9,0 239.2,107.3 239.2,239.2 v 1870.4 c 0,131.9 -107.3,239.3 -239.2,239.3 z m 4848.3,-2374.6 h -4848.3 c -146,0 -264.9,118.8 -264.9,264.9 v 1870.4 c 0,146.1 118.9,264.9 264.9,264.9 h 4848.3 c 146,0 264.9,-118.8 264.9,-264.9 v -1870.4 c 0,-146.1 -118.9,-264.9 -264.9,-264.9"
         style="fill:#0f0111;fill-opacity:1;fill-rule:nonzero;stroke:none"
         id="path188" />
      <path
         d="m 18858.7,16006.4 h -2843.1 v 25.7 h 2843.1 v -25.7"
         style="fill:#0f0111;fill-opacity:1;fill-rule:nonzero;stroke:none"
         id="path190" />
      <path
         d="m 15373.8,15563.6 c 0,-173.1 -76.9,-328.1 -198.5,-432.9 -20.6,-17.8 -42.5,-34.1 -65.5,-48.8 -88.7,-56.6 -194.1,-89.5 -307.1,-89.5 -113.1,0 -218.5,32.9 -307.2,89.5 -23,14.7 -44.8,31 -65.4,48.8 -121.7,104.8 -198.6,259.8 -198.6,432.9 0,315.4 255.7,571.2 571.2,571.2 315.4,0 571.1,-255.8 571.1,-571.2"
         style="fill:#cb4e47;fill-opacity:1;fill-rule:nonzero;stroke:none"
         id="path192" />
      <path
         d="m 14975.9,15642.8 c 0,-95.7 -77.5,-173.3 -173.2,-173.3 -95.7,0 -173.3,77.6 -173.3,173.3 0,95.7 77.6,173.2 173.3,173.2 95.7,0 173.2,-77.5 173.2,-173.2"
         style="fill:#ffffff;fill-opacity:1;fill-rule:nonzero;stroke:none"
         id="path194" />
      <path
         d="M 18858.7,15550.8 H 15791 v 25.6 h 3067.7 v -25.6"
         style="fill:#0f0111;fill-opacity:1;fill-rule:nonzero;stroke:none"
         id="path196" />
      <path
         d="m 18858.7,15095.1 h -3395 v 25.7 h 3395 v -25.7"
         style="fill:#0f0111;fill-opacity:1;fill-rule:nonzero;stroke:none"
         id="path198" />
      <path
         d="m 15175.3,15130.7 c -20.6,-17.8 -42.5,-34.1 -65.5,-48.8 -88.7,-56.6 -194.1,-89.5 -307.1,-89.5 -113.1,0 -218.5,32.9 -307.2,89.5 -23,14.7 -44.8,31 -65.4,48.8 31.9,176.8 186.6,311 372.6,311 186,0 340.6,-134.2 372.6,-311"
         style="fill:#ffffff;fill-opacity:1;fill-rule:nonzero;stroke:none"
         id="path200" />
      <path
         d="m 8096.17,15504.6 c -176.44,0 -319.98,143.6 -319.98,320 h 25.67 c 0,-162.3 132.03,-294.3 294.31,-294.3 162.28,0 294.31,132 294.31,294.3 0,162.3 -132.03,294.3 -294.31,294.3 v 25.7 c 176.44,0 319.98,-143.6 319.98,-320 0,-176.4 -143.54,-320 -319.98,-320"
         style="fill:#0f0111;fill-opacity:1;fill-rule:nonzero;stroke:none"
         id="path202" />
      <path
         d="m 9505.4,15042.4 c -79.91,0 -170.26,51.9 -175.12,54.7 l 12.9,22.2 c 1.4,-0.8 141.2,-81 213.28,-39.5 28.8,16.6 43.4,52.1 43.4,105.4 h 25.67 c 0,-63.2 -18.94,-106.1 -56.28,-127.6 -18.92,-10.9 -40.96,-15.2 -63.85,-15.2"
         style="fill:#0f0111;fill-opacity:1;fill-rule:nonzero;stroke:none"
         id="path204" />
      <path
         d="M 10575.4,11892.9 10354.9,9102.6 8739.88,10166.5 V 12079 l 1835.52,-186.1"
         style="fill:#638c80;fill-opacity:1;fill-rule:nonzero;stroke:none"
         id="path206" />
      <path
         d="m 6756.15,9827.1 c -0.26,-3 0.19,-5.9 1.22,-8.5 -130.92,-12.5 -222.25,-90.9 -223.15,-91.8 l -16.94,19.4 c 4.17,3.7 99.8,86 240.54,98.2 l -1.67,-17.3"
         style="fill:#0f0111;fill-opacity:1;fill-rule:nonzero;stroke:none"
         id="path208" />
      <path
         d="m 10824.2,13038.3 -15.1,20.7 c 127.9,93.4 345.8,293 367.3,580.8 18.4,245.9 -109.2,505.8 -379,772.6 -289.8,286.4 -461.9,577.9 -555.3,772.1 -101.3,210.6 -134.6,355.9 -134.9,357.3 l 25,5.6 c 1.3,-5.7 134.3,-574.1 683.2,-1116.8 275.5,-272.3 405.5,-539 386.6,-792.7 -22.3,-298.1 -246.3,-503.6 -377.8,-599.6"
         style="fill:#c64744;fill-opacity:1;fill-rule:nonzero;stroke:none"
         id="path210" />
      <path
         d="m 10383,9288.2 -25.6,1.8 201,2761.3 25.6,-1.9 -201,-2761.2"
         style="fill:#0f0111;fill-opacity:1;fill-rule:nonzero;stroke:none"
         id="path212" />
      <path
         d="m 6865.69,10806 -25.27,4.6 173.28,969 25.27,-4.5 -173.28,-969.1"
         style="fill:#0f0111;fill-opacity:1;fill-rule:nonzero;stroke:none"
         id="path214" />
      <path
         d="m 9528.69,17207.6 c -91.84,38 -188.24,67.6 -287.01,89.4 -89.27,69.9 -174.5,96.6 -254.84,79.2 -30.17,-6.4 -59.56,-18.7 -88.25,-35.8 -304.33,-182.2 -521.57,-917.5 -583.89,-1211.1 l -144.4,30.7 c 2.63,12.5 66.49,310 190.29,625.2 95.24,242.6 198.89,426.6 309.91,550.9 90.36,101.2 185.67,162.8 285.27,184.4 190.42,41 383.01,-64.2 572.92,-312.9"
         style="fill:#6e4f72;fill-opacity:1;fill-rule:nonzero;stroke:none"
         id="path216" />
      <path
         d="m 8932.34,14777 c -28.96,0 -62.52,6 -96.64,18.6 -75.27,27.8 -127.92,77.9 -127.98,118.5 -0.01,5.2 0.84,10.2 2.62,15 9.35,25.4 42.28,38.8 85.39,38.8 28.96,0 62.52,-6 96.63,-18.6 75.27,-27.7 127.93,-77.9 127.99,-118.5 0,-5.2 -0.85,-10.2 -2.62,-15 -9.36,-25.4 -42.28,-38.8 -85.39,-38.8"
         style="fill:#4d3251;fill-opacity:1;fill-rule:nonzero;stroke:none"
         id="path218" />
      <path
         d="M 4546.86,7640.6 H 2481.42 v 476 h 2065.44 c 102.49,0 185.57,-83.1 185.57,-185.5 v -105 c 0,-102.5 -83.08,-185.5 -185.57,-185.5"
         style="fill:#fceee3;fill-opacity:1;fill-rule:nonzero;stroke:none"
         id="path220" />
      <path
         d="M 6046.01,8140.1 H 2410.89 c -6.5,0 -11.76,-5.2 -11.76,-11.7 0,-6.5 5.26,-11.8 11.76,-11.8 h 2083.5 c 131.46,0 238.04,-106.6 238.04,-238 0,-131.5 -106.58,-238 -238.04,-238 h -2083.5 c -6.5,0 -11.76,-5.3 -11.76,-11.8 0,-6.5 5.26,-11.7 11.76,-11.7 h 3635.12 c 144.44,0 261.54,117 261.54,261.5 0,144.4 -117.1,261.5 -261.54,261.5"
         style="fill:#cb4e47;fill-opacity:1;fill-rule:nonzero;stroke:none"
         id="path222" />
      <path
         d="m 15773.5,9669.9 -23.4,10.5 c 27.8,61.9 32,118.2 12.4,167.4 -31.7,79.3 -115.5,114.4 -116.3,114.7 l 9.7,23.8 c 3.8,-1.6 94.4,-39.3 130.3,-128.8 22.4,-55.9 18.2,-119.1 -12.7,-187.6"
         style="fill:#f5ebf7;fill-opacity:1;fill-rule:nonzero;stroke:none"
         id="path224" />
      <path
         d="m 22764.6,16499.9 157.2,-344.5 -1807.9,233.7 1650.7,110.8"
         style="fill:#6e4f72;fill-opacity:1;fill-rule:nonzero;stroke:none"
         id="path226" />
      <path
         d="m 22921.8,16155.4 -1807.9,233.7 1650.7,110.8 157.2,-344.5"
         style="fill:#513655;fill-opacity:1;fill-rule:nonzero;stroke:none"
         id="path228" />
      <path
         d="m 22795.8,17780 205.6,-644.6 -1765.2,-686.9 1788.6,613.6 209.9,-658 -2120.8,-14.4 1681.9,1390.3"
         style="fill:#6e4f72;fill-opacity:1;fill-rule:nonzero;stroke:none"
         id="path230" />
      <path
         d="m 26555.3,17292.4 c -49.5,30.8 -102.6,59.4 -157.4,84.8 l 15.2,32.5 c 56.1,-26.1 110.4,-55.3 161.1,-86.8 z m 2953.5,-1414.2 c -51.5,29.7 -104.8,58.4 -158.4,85.5 l 16.2,32 c 54.2,-27.3 108.1,-56.4 160.1,-86.4 z m -488.1,229.7 12.6,33.6 c 56.8,-21.3 113.6,-44.3 168.6,-68.4 l -14.4,-32.9 c -54.4,23.8 -110.6,46.6 -166.8,67.7 z m -2961.1,1385.5 8.4,34.9 c 60.4,-14.6 119.4,-31.7 175.3,-50.7 l -11.5,-34 c -54.9,18.7 -112.9,35.4 -172.2,49.8 z m 2617.9,-1276.4 9.2,34.7 c 58.7,-15.5 117.5,-32.6 174.7,-50.8 l -10.9,-34.1 c -56.6,17.9 -114.8,34.8 -173,50.2 z m 1131.7,-536.5 c -47.6,35.5 -97.2,70.3 -147.3,103.3 l 19.7,29.9 c 50.7,-33.3 100.9,-68.5 149.1,-104.5 z m -2979.7,1385.2 c -39.8,43.6 -83.2,84.9 -129.2,122.8 l 22.9,27.7 c 47.2,-39 91.9,-81.5 132.8,-126.3 z m -1124.5,485.1 3.3,35.7 c 61.8,-5.7 122.6,-13.3 180.8,-22.6 l -5.7,-35.4 c -57.4,9.2 -117.4,16.7 -178.4,22.3 z m 2620.3,-1258.4 5.9,35.4 c 59.8,-9.9 119.9,-21.4 178.6,-33.9 l -7.5,-35.1 c -58.1,12.4 -117.7,23.7 -177,33.6 z m 1758.2,-844.4 c -42.9,41.2 -87.8,81.8 -133.5,120.5 l 23.2,27.4 c 46.3,-39.2 91.8,-80.3 135.2,-122 z m -2116,888.2 2.9,35.7 c 60.6,-4.8 121.5,-10.9 180.8,-18.2 l -4.3,-35.6 c -58.9,7.2 -119.2,13.3 -179.4,18.1 z m -936.9,435.9 c -27.1,53.7 -57.5,105.5 -90.5,153.8 l 29.6,20.2 c 33.9,-49.6 65.2,-102.7 92.9,-157.8 z m -1685.5,791.6 -0.5,35.9 c 61.8,0.9 123,0.3 181.9,-1.7 l -1.2,-35.9 c -58.3,2.1 -118.9,2.6 -180.2,1.7 z m 4981,-2380.9 c -37.2,46.4 -76.5,92.3 -117,136.6 l 26.5,24.2 c 41,-44.8 80.9,-91.3 118.5,-138.4 z m -2718.8,1167.8 v 35.9 c 60.8,-0.1 121.9,-1.3 181.7,-3.7 l -1.5,-35.9 c -59.3,2.4 -119.9,3.6 -180.2,3.7 z m -2622.4,1192.2 -3.5,35.8 c 61.3,5.9 122.3,10.7 181.4,14.2 l 2.1,-35.9 c -58.6,-3.4 -119.2,-8.1 -180,-14.1 z m 5546.3,-2655 c -30.4,51 -63.2,101.8 -97.5,151 l 29.5,20.5 c 34.7,-49.9 68,-101.4 98.8,-153 z M 27153,16436.7 c -14.7,59.1 -32.1,116.8 -51.9,171.3 l 33.8,12.2 c 20.1,-55.7 38,-114.5 53,-174.9 z m 93.8,-98.4 -2.5,35.8 c 60.5,4.2 121.5,7.4 181.4,9.4 l 1.2,-35.8 c -59.4,-2.1 -120,-5.2 -180.1,-9.4 z m -2620,1157.7 -5.7,35.4 c 60.4,9.8 120.9,18.7 179.7,26.5 l 4.6,-35.6 c -58.4,-7.7 -118.5,-16.6 -178.6,-26.3 z m 6066,-2928.9 c -22.7,54.8 -47.9,109.7 -74.9,163.3 l 32,16.2 c 27.4,-54.4 53,-110.2 76,-165.7 z m -3805,1734.6 -4.8,35.6 c 10.6,1.4 21.3,2.8 32.1,4.2 49.5,6.4 99.4,12.1 148.3,17.1 l 3.6,-35.7 c -48.5,-4.9 -98.1,-10.6 -147.4,-17 -10.6,-1.3 -21.2,-2.7 -31.8,-4.2 z m 321.1,-219.2 c -4.8,61 -11.8,121.1 -20.7,178.4 l 35.5,5.5 c 9,-58.2 16.1,-119.1 21,-181.1 z m -2936.9,1345.8 -7.6,35.1 c 59.7,13 119.6,25.2 177.9,36.3 l 6.7,-35.2 c -58,-11.1 -117.5,-23.3 -177,-36.2 z m 6531.9,-3202.4 c -13.7,57.5 -30.1,115.6 -48.8,172.8 l 34.1,11.1 c 19,-58.1 35.7,-117.2 49.6,-175.6 z m -4270.3,2011.3 -8.3,34.9 c 56.8,13.4 116.8,25.8 178.2,36.9 l 6.3,-35.3 c -60.7,-11 -120,-23.3 -176.2,-36.5 z m -2613.1,1106.3 -9.2,34.7 c 58.9,15.6 118.1,30.6 176.1,44.6 l 8.4,-34.9 c -57.7,-14 -116.7,-28.9 -175.3,-44.4 z m 3293.7,-1620.6 c 0.8,17.8 1.5,35.9 1.9,54.2 1.1,42.4 1.4,84.7 0.9,125.8 l 35.9,0.5 c 0.5,-41.5 0.2,-84.4 -0.9,-127.3 -0.5,-18.5 -1.1,-36.7 -1.9,-54.7 z m -1023.4,407.9 -13.4,33.3 c 53.8,21.6 111.7,42 172.1,60.5 l 10.5,-34.3 c -59.4,-18.2 -116.3,-38.3 -169.2,-59.5 z m 4665.4,-2259.4 c -3.3,58.7 -9.4,118.7 -18.3,178.4 l 35.5,5.2 c 9.1,-60.7 15.3,-121.8 18.6,-181.6 z m -7283.4,3372.7 -10.5,34.3 c 57.9,17.7 116.5,35.1 174,51.6 l 9.9,-34.5 c -57.4,-16.4 -115.7,-33.7 -173.4,-51.4 z m 3600.3,-1877.7 c 11.3,55.9 20.5,115.5 27.4,177.3 l 35.7,-4 c -7.1,-62.8 -16.5,-123.5 -27.9,-180.4 z m -1294.9,593.6 -21.6,28.7 c 46.3,34.8 98.4,67.8 155,98.3 l 17,-31.6 c -55,-29.6 -105.6,-61.7 -150.4,-95.4 z m -2649.2,1171.5 -11.8,33.9 c 57.1,19.9 114.9,39.4 172,58.1 l 11.2,-34.1 c -56.9,-18.7 -114.6,-38.1 -171.4,-57.9 z m 7611.1,-3617.4 c 8.8,58 14.6,117.9 17.3,178.1 l 35.8,-1.5 c -2.7,-61.5 -8.6,-122.8 -17.6,-182 z m -3746.1,1497.8 -32.1,16.1 c 3.1,6.3 6.3,12.7 9.3,19.1 21.3,45.1 40.6,94.2 57.3,146.1 l 34.2,-11 c -17.2,-53.4 -37,-104 -59,-150.4 -3.2,-6.7 -6.4,-13.4 -9.7,-19.9 z m -1475.4,697.7 0.2,0.6 c 25.5,53.7 59.8,105.5 102,153.8 l 27.1,-23.6 c -40.1,-45.9 -72.6,-94.8 -96.6,-145.6 z m -45,-364.1 c -11.7,62.7 -14,125.1 -6.7,185.6 l 35.6,-4.3 c -6.8,-56.9 -4.7,-115.6 6.4,-174.7 z m 1290.2,-619.1 -21.4,28.9 c 45.5,33.7 87.7,75 125.5,122.8 l 28.2,-22.2 c -39.8,-50.3 -84.3,-93.9 -132.3,-129.5 z m -1137,285.5 c -38.1,50.6 -70.2,103.7 -95.6,157.7 l 32.5,15.2 c 24.3,-51.8 55.2,-102.7 91.8,-151.4 z m 790.7,-406.7 -1.6,35.8 c 59.9,2.7 117.8,13.7 172,32.5 l 11.8,-33.9 c -57.5,-20 -118.8,-31.6 -182.2,-34.4 z m -522.4,156.8 c -51.3,33.6 -100,71.7 -144.9,113.3 l 24.4,26.3 c 43.4,-40.2 90.5,-77.1 140.1,-109.5 z m 162.2,-86.8 14,33 c 55.9,-23.7 112.8,-41.5 169,-52.9 l -7.1,-35.2 c -58.6,11.9 -117.8,30.4 -175.9,55.1"
         style="fill:#6e4f72;fill-opacity:1;fill-rule:nonzero;stroke:none"
         id="path232" />
      <path
         d="m 29636.4,12703.9 c -2359.5,747.6 -4541.8,-1557.3 -3671.8,-3874.4 1559.1,-4152.4 3799.2,-8823.69922 5601,-8597 3151.3,396.703 7163.4,-108.898 5934,6261.9 -527.7,2734.7 863.6,2578.7 1751.2,4293.9 887.5,1715.2 -96,6021.1 -3682.3,5961.2 -3408.9,-57 -2386.8,-5157.6 -5829.2,-4078.1 -34.4,10.8 -68.7,21.6 -102.9,32.5"
         style="fill:#f5ebf7;fill-opacity:1;fill-rule:nonzero;stroke:none"
         id="path234" />
      <path
         d="m 30231.4,7367.9 c -7.8,2.2 -193.1,55.5 -398.1,175.1 -273.1,159.5 -447.2,361.2 -503.5,583.5 -86.3,340.7 93,730.8 532.9,1159.5 l 29.1,-29.9 c -428.4,-417.5 -603.9,-794.1 -521.7,-1119.2 129.6,-512.2 865.2,-726.8 872.7,-728.9 l -11.4,-40.1"
         style="fill:#2d0b0a;fill-opacity:1;fill-rule:nonzero;stroke:none"
         id="path236" />
      <path
         d="m 29739.3,10848.3 c 0,0 443.8,-1235.4 0,-1835.1 -443.8,-599.8 -107.9,-1691.2 959.5,-1499.3 1067.5,191.9 1547.3,3202.5 -959.5,3334.4"
         style="fill:#2d0b0a;fill-opacity:1;fill-rule:nonzero;stroke:none"
         id="path238" />
      <path
         d="m 29232.7,1318.8 c -1703.2,683.7 -2434.9,3226.5 -2434.9,3730.3 0,287.1 81.8,500.2 152.2,630.5 50.4,93.1 151.4,147.2 256.8,137.7 175.5,-15.6 459.2,-50.4 646.5,-120.6 229.5,-86.1 -273.2,-172.1 -486.2,-203.5 -25.7,-3.7 -48.1,-16.7 -64.1,-35.1 -15.9,-18.5 -25.4,-42.5 -25.4,-68.4 0,-54.8 45.8,-98.4 100.5,-95.4 l 578.9,30.7 c 100.8,23.3 193.9,-61.3 180.5,-163.9 l -67.8,-519.7 c -7.6,-58.4 -49.1,-106.8 -105.5,-123.3 L 27683,4411.3 c -27.2,-10.4 -34.9,-45.2 -14.5,-66.1 l 988.4,-1011.3 62.3,666.3 57.7,617.1 1175.4,599.7 c 0,0 174.5,-813.2 249.1,-1703.3 102.8,-1222.7 17,-2590.598 -968.7,-2194.9"
         style="fill:#f79f72;fill-opacity:1;fill-rule:nonzero;stroke:none"
         id="path240" />
      <path
         d="m 30195.1,3615.7 -1475.9,384.5 57.7,617.1 1175.4,599.7 c 0,0 168.2,-711.2 242.8,-1601.3"
         style="fill:#0f0111;fill-opacity:1;fill-rule:nonzero;stroke:none"
         id="path242" />
      <path
         d="m 28786.4,3993.6 1120.8,-126 -86.9,-2572.8 C 30276.1,-696.199 34726,587.199 34726,587.199 l 95.9,2758.701 299.5,72.9 c 366.2,137 426.8,249 438.3,500 27.8,601.2 26.3,1718.9 -282,2593.6 C 34833.9,7771.8 32687,8179.6 32687,8179.6 l -1460.4,-150 c 0,0 -1211.6,-311.7 -1499.3,-587.7 -887.6,-851.6 -1218,-2416.3 -1262.7,-3104.7 -12.1,-186.2 135.4,-343.6 321.8,-343.6"
         style="fill:#cb4e47;fill-opacity:1;fill-rule:nonzero;stroke:none"
         id="path244" />
      <path
         d="m 32693,7334 c -539.7,-731.7 -2331.4,-120.3 -1829.1,101.9 340.6,150.8 393.9,414.7 353.7,653.7 -8.3,49.2 -20.5,97.3 -35,143.1 -65,205.1 -175.4,365 -180.7,372.4 l -0.1,0.3 1163.5,1127.4 c 0,0 19.5,-30.6 52.1,-85.3 207.5,-349 942.3,-1681 475.6,-2313.5"
         style="fill:#f79f72;fill-opacity:1;fill-rule:nonzero;stroke:none"
         id="path246" />
      <path
         d="m 31217.6,8089.6 c -8.3,49.2 -20.5,97.3 -35,143.1 -65,205.1 -175.4,365 -180.7,372.4 l -0.1,0.3 1163.5,1127.4 c 0,0 19.5,-30.6 52.1,-85.3 160.3,-477.2 -618.9,-1551.4 -999.8,-1557.9"
         style="fill:#0f0111;fill-opacity:1;fill-rule:nonzero;stroke:none"
         id="path248" />
      <path
         d="m 32687,10230.6 c 0,0 -518,-1531.9 -1723,-1933.5 -116,-38.7 -242.4,-33.4 -354.7,14.9 -240,103.1 -631.2,372.9 -753,1055 0,0 -101.5,823.6 -155.9,959.5 -72,179.9 -635.7,1691.2 791.6,1859.2 1427.3,167.9 2230.9,-132 2195,-1955.1"
         style="fill:#f79f72;fill-opacity:1;fill-rule:nonzero;stroke:none"
         id="path250" />
      <path
         d="m 30600.4,10403.5 c 8.9,4 14.8,6.3 22.1,9.1 6.9,2.6 13.7,5.1 20.6,7.5 13.7,4.8 27.5,9 41.3,13.1 27.6,8 55.6,14.5 83.8,19.7 56.5,10.3 114.5,14.5 172.8,10.7 58.1,-4 116.7,-16.4 170.8,-40.2 54.5,-23.1 103.3,-58.2 144,-99.4 14.7,-14.9 14.5,-38.9 -0.4,-53.6 -14,-13.8 -36.1,-14.5 -50.9,-2.1 l -0.9,0.8 c -37.2,31.3 -78.9,56 -124.2,70.5 -45,15.3 -93.1,21.1 -141.3,20.2 -48.2,-1.2 -96.8,-8.9 -144.2,-22 -23.7,-6.5 -47.1,-14.2 -70,-23.1 -11.4,-4.5 -22.8,-9.1 -33.8,-14.1 l -16.3,-7.6 c -5,-2.5 -11.2,-5.6 -14.4,-7.5 -31.4,-18.6 -71.9,-8.3 -90.6,23.1 -18.6,31.4 -8.3,72 23.1,90.6 2.1,1.3 4.3,2.4 6.5,3.4 l 2,0.9"
         style="fill:#2d0b0a;fill-opacity:1;fill-rule:nonzero;stroke:none"
         id="path252" />
      <path
         d="m 30161.8,10238.9 c -1.8,0.7 -6.6,1.9 -10.1,2.9 l -11.9,2.7 c -8,1.8 -16.2,3.3 -24.5,4.7 -16.5,2.7 -33.2,4.5 -49.9,5.5 -33.4,2.1 -66.8,0.4 -98.8,-5.5 -31.9,-6.1 -62.6,-16.5 -90,-32.6 -27.6,-15.8 -51.4,-37.5 -71.5,-63.2 l -0.8,-1 c -12.7,-16.3 -36.3,-19.1 -52.5,-6.4 -15.2,11.9 -18.6,33.4 -8.6,49.4 22.2,35.4 51.3,67.9 86.2,92.6 34.6,25.3 74,43.1 114.1,54.9 40.3,11.7 81.5,17.7 122.5,19.2 20.5,0.8 41,0.5 61.5,-0.8 10.2,-0.7 20.4,-1.5 30.8,-2.7 l 15.6,-2.1 c 5.6,-0.9 9.9,-1.5 17.1,-3 l 4,-0.9 c 32.1,-6.8 52.5,-38.4 45.7,-70.4 -6.8,-32.1 -38.3,-52.6 -70.4,-45.8 -2.8,0.6 -5.9,1.5 -8.5,2.5"
         style="fill:#2d0b0a;fill-opacity:1;fill-rule:nonzero;stroke:none"
         id="path254" />
      <path
         d="m 30343.6,9248.6 c -41.5,0 -73.6,11.4 -96.8,34.3 -89.7,88.9 11.5,315.8 15.9,325.4 l 32.7,-14.8 c -26.7,-59.2 -83.1,-225.8 -23.2,-285 41.9,-41.6 140.2,-28.1 284.2,38.8 l 15.2,-32.6 c -94.9,-44.1 -170.5,-66.1 -228,-66.1"
         style="fill:#0f0111;fill-opacity:1;fill-rule:nonzero;stroke:none"
         id="path256" />
      <path
         d="m 30466.9,8828.6 c -52,0 -109.5,5.1 -173.1,16.9 l 6.5,35.4 c 460.3,-85.2 578.7,190.3 579.8,193 l 33.3,-13.6 c -1.1,-2.6 -99.3,-231.7 -446.5,-231.7"
         style="fill:#0f0111;fill-opacity:1;fill-rule:nonzero;stroke:none"
         id="path258" />
      <path
         d="m 30002.9,9726 v 0 c -37.6,-5.5 -72.7,20.5 -78.3,58.1 l -16.8,113.6 c -5.6,37.7 20.4,72.7 58.1,78.3 37.6,5.6 72.6,-20.4 78.2,-58.1 l 16.9,-113.6 c 5.6,-37.6 -20.4,-72.7 -58.1,-78.3"
         style="fill:#0a010c;fill-opacity:1;fill-rule:nonzero;stroke:none"
         id="path260" />
      <path
         d="m 30376.1,7655.4 c 89.3,-292.8 265.8,-609.3 265.8,-609.3 l 1583.3,-239.9 887.6,875.6 -48,215.9 h -84 c 0,0 -1670.2,-251.9 -1754.2,131.9 l -850.5,-374.2"
         style="fill:#cb4e47;fill-opacity:1;fill-rule:nonzero;stroke:none"
         id="path262" />
      <path
         d="m 32035,7481.2 c -262,0 -578.4,79.1 -913.3,336.7 l 22,28.6 c 490.4,-377.4 939.1,-362.7 1229.1,-283.9 315.2,85.6 517.1,263.2 519.1,265 l 24,-26.8 c -8.4,-7.5 -209.2,-184.4 -532.1,-272.5 -99.6,-27.2 -217.4,-47.1 -348.8,-47.1"
         style="fill:#0f0111;fill-opacity:1;fill-rule:nonzero;stroke:none"
         id="path264" />
      <path
         d="m 29925.1,3865.4 -35.7,4.5 48,383.8 35.7,-4.5 -48,-383.8"
         style="fill:#0f0111;fill-opacity:1;fill-rule:nonzero;stroke:none"
         id="path266" />
      <path
         d="m 28976.3,4188.9 -238.9,6 -945.2,23.9 -123.7,126.4 c -20.4,20.9 -12.7,55.7 14.5,66.1 l 281.2,106.8 c 56.4,16.5 97.9,64.9 105.5,123.3 l 67.8,519.7 c 13.4,102.6 -79.7,187.2 -180.5,163.9 l -578.9,-30.7 c -54.7,-3 -100.5,40.6 -100.5,95.4 0,25.9 9.5,49.9 25.4,68.4 16,18.4 38.4,31.4 64.1,35.1 213,31.4 715.7,117.4 486.2,203.5 -187.3,70.2 -471,105 -646.5,120.6 -96.2,8.6 -188.8,-35.6 -242.5,-114.3 l -310,637.1 c -27.9,57.5 13.9,124.3 77.7,124.3 h 1316.8 c 34.3,0 65.3,-20.2 79.1,-51.5 l 767.2,-1735.3 162.4,-367.4 c 25.6,-57.9 -17.8,-122.9 -81.2,-121.3"
         style="fill:#6e4f72;fill-opacity:1;fill-rule:nonzero;stroke:none"
         id="path268" />
      <path
         d="m 28976.3,4188.9 -238.9,6 -945.2,23.9 -123.7,126.4 c -20.4,20.9 -12.7,55.7 14.5,66.1 l 281.2,106.8 c 56.4,16.5 97.9,64.9 105.5,123.3 l 67.8,519.7 c 13.4,102.6 -79.7,187.2 -180.5,163.9 l -578.9,-30.7 c -54.7,-3 -100.5,40.6 -100.5,95.4 0,25.9 9.5,49.9 25.4,68.4 16,18.4 38.4,31.4 64.1,35.1 213,31.4 715.7,117.4 486.2,203.5 -187.3,70.2 -471,105 -646.5,120.6 -96.2,8.6 -188.8,-35.6 -242.5,-114.3 l -310,637.1 c -27.9,57.5 13.9,124.3 77.7,124.3 h 1316.8 c 34.3,0 65.3,-20.2 79.1,-51.5 l 540.2,-1221.7 c -73.2,-70.2 -112.9,-118.2 -112.9,-118.2 -31.9,-29.6 -48.5,-70.2 -48.5,-111.4 0,-26.9 7,-53.8 21.7,-78.2 44.1,-73.5 140.2,-96.2 212.4,-50 l 66.7,42.6 87.6,-198.4 162.4,-367.4 c 25.6,-57.9 -17.8,-122.9 -81.2,-121.3"
         style="fill:#6e4f72;fill-opacity:1;fill-rule:nonzero;stroke:none"
         id="path270" />
      <path
         d="m 35115.9,3423.8 c 0,0 -677.7,-3124.499 -2273,-2512.8 -1348,516.9 -2379.1,2369.9 -2666.4,2931.8 -52.9,103.6 -148.7,178.8 -262.1,205.3 l -282.2,66.2 c -184,43.1 -324.1,192.3 -355.5,378.6 l -76.9,455.4 c -13,76.3 -99.4,114.7 -164.6,73 l -227.7,-145.3 -139.4,315.2 c 95.7,91.7 248.8,221.5 445.6,332.1 295.2,165.8 668,85.5 873.8,-183.3 l 596,-778 c 26.8,-34.9 58.5,-65.9 94,-91.8 L 32710,2987 c 65.7,-47.9 159,-17.9 184.4,59.4 l 160.6,487.4 0.2,0.6 123.6,375.2 c 0,0 736.8,-820.6 1934.9,-486.4 l 2.2,0.6"
         style="fill:#f79f72;fill-opacity:1;fill-rule:nonzero;stroke:none"
         id="path272" />
      <path
         d="m 35113.7,3423.2 c -780.6,-371.2 -2016,228.5 -2016,228.5 l 81.1,257.9 c 0,0 736.8,-820.6 1934.9,-486.4"
         style="fill:#0f0111;fill-opacity:1;fill-rule:nonzero;stroke:none"
         id="path274" />
      <path
         d="m 34551,3315.5 c -370.7,0 -874.1,114.4 -1384.4,580.8 l -7.9,7.2 326.4,1341.7 34.9,-8.5 -321.3,-1321 c 568.8,-515.8 1126.8,-588.5 1495.4,-558.4 401,32.8 669.8,190.4 672.4,192 l 18.5,-30.9 c -2.8,-1.7 -278.8,-163.5 -688,-196.9 -45.9,-3.8 -94.7,-6 -146,-6"
         style="fill:#0f0111;fill-opacity:1;fill-rule:nonzero;stroke:none"
         id="path276" />
      <path
         d="m 30207.1,11496 c 0,0 -61.9,-920.6 -558.7,-1024.1 -496.8,-103.4 -746.4,1928.4 727.7,1872 1474.2,-56.3 -169,-847.9 -169,-847.9"
         style="fill:#2d0b0a;fill-opacity:1;fill-rule:nonzero;stroke:none"
         id="path278" />
      <path
         d="m 32855.2,2496.9 -30.7,18.8 c 125.1,204.7 5.9,457 4.6,459.5 l 32.4,15.7 c 5.4,-11 129.2,-272.3 -6.3,-494"
         style="fill:#0f0111;fill-opacity:1;fill-rule:nonzero;stroke:none"
         id="path280" />
      <path
         d="m 28779.6,3055.9 -35.7,4.2 c 22.3,189.6 -97.5,257.3 -98.7,258 l 17.2,31.6 c 5.9,-3.2 142.4,-80.3 117.2,-293.8"
         style="fill:#0f0111;fill-opacity:1;fill-rule:nonzero;stroke:none"
         id="path282" />
      <path
         d="m 31046.7,12659.4 c -1143.9,-439.9 -875.6,-1175.4 -875.6,-1175.4 0,0 -251.9,-575.7 1719.4,-1179.3 571.5,-1495.4 918.7,-5139.1 2730.5,-2862.8 2170.2,2726.7 -2482.8,5637.3 -3574.3,5217.5"
         style="fill:#2d0b0a;fill-opacity:1;fill-rule:nonzero;stroke:none"
         id="path284" />
      <path
         d="m 31894.3,10367.4 c 11.4,-205.8 -212.9,-493.3 51.1,-524.9 204.7,-24.5 532.8,307 521.3,512.8 -11.4,205.8 -102.3,412.1 -308.2,400.7 -205.8,-11.4 -275.7,-182.7 -264.2,-388.6"
         style="fill:#f79f72;fill-opacity:1;fill-rule:nonzero;stroke:none"
         id="path286" />
      <path
         d="m 32150.7,10103.7 -25,25.9 c 118.1,114.1 168.8,215 150.9,299.6 -22,104.2 -143.4,149.9 -144.6,150.3 l 12.4,33.8 c 5.7,-2.1 141.3,-53.1 167.4,-176.6 20.7,-97.6 -33.5,-209.7 -161.1,-333"
         style="fill:#0f0111;fill-opacity:1;fill-rule:nonzero;stroke:none"
         id="path288" />
      <path
         d="m 29361.1,4456.7 c -53.7,0 -83.9,26 -86,27.9 l 23.7,27 c 2.9,-2.5 72,-59.2 197.6,37.4 l 22,-28.5 c -64.2,-49.4 -117.3,-63.8 -157.3,-63.8"
         style="fill:#0f0111;fill-opacity:1;fill-rule:nonzero;stroke:none"
         id="path290" />
      <path
         d="m 29287.9,4676.2 c -24.5,0 -41.5,2.9 -43.5,3.2 l 6.3,35.5 c 1.3,-0.3 130,-21.7 190.9,65.9 l 29.5,-20.5 c -49.9,-71.9 -132.6,-84.1 -183.2,-84.1"
         style="fill:#0f0111;fill-opacity:1;fill-rule:nonzero;stroke:none"
         id="path292" />
      <path
         d="m 29218.5,4901.9 c -4,0 -6.6,0.1 -7.4,0.1 l 1,36 c 1.7,-0.1 170.1,-3.8 225.1,70.6 l 28.9,-21.4 c -59.5,-80.5 -211.9,-85.3 -247.6,-85.3"
         style="fill:#0f0111;fill-opacity:1;fill-rule:nonzero;stroke:none"
         id="path294" />
      <path
         d="m 30806.5,9846 v 0 c -37.6,-5.6 -72.7,20.4 -78.2,58 l -16.9,113.7 c -5.6,37.6 20.4,72.7 58.1,78.2 37.6,5.6 72.7,-20.4 78.2,-58 l 16.9,-113.6 c 5.6,-37.7 -20.4,-72.7 -58.1,-78.3"
         style="fill:#0a010c;fill-opacity:1;fill-rule:nonzero;stroke:none"
         id="path296" />
      <path
         d="m 30573.3,8499 -30.7,18.8 c 1,1.6 101.3,159.9 322.6,59.3 l -14.9,-32.8 c -192.7,87.6 -276.1,-44 -277,-45.3"
         style="fill:#0f0111;fill-opacity:1;fill-rule:nonzero;stroke:none"
         id="path298" />
      <path
         d="m 32072.2,9918.7 c 0,-53 -43,-95.9 -96,-95.9 -53,0 -95.9,42.9 -95.9,95.9 0,53 42.9,96 95.9,96 53,0 96,-43 96,-96"
         style="fill:#ffffff;fill-opacity:1;fill-rule:nonzero;stroke:none"
         id="path300" />
      <path
         d="m 27660,5067.1 -3.4,35.8 475.2,45.7 3.4,-35.8 -475.2,-45.7"
         style="fill:#0f0111;fill-opacity:1;fill-rule:nonzero;stroke:none"
         id="path302" />
      <path
         d="m 27611.8,4863.2 -3,35.9 500.8,41.7 3,-35.8 -500.8,-41.8"
         style="fill:#0f0111;fill-opacity:1;fill-rule:nonzero;stroke:none"
         id="path304" />
      <path
         d="m 27733.7,4671.6 -6.9,35.3 348.9,68.5 6.9,-35.3 -348.9,-68.5"
         style="fill:#0f0111;fill-opacity:1;fill-rule:nonzero;stroke:none"
         id="path306" />
      <path
         d="m 27779.7,5630.6 c -20.1,0 -37.6,4.4 -52.7,13.3 -39.1,23.1 -44.4,67 -44.6,68.8 l 35.7,4.1 c 0.1,-0.2 3.9,-28.4 27.5,-42.1 22.7,-13.1 58.5,-10.1 103.7,8.7 l 13.8,-33.3 c -31.2,-13 -59.1,-19.5 -83.4,-19.5"
         style="fill:#0f0111;fill-opacity:1;fill-rule:nonzero;stroke:none"
         id="path308" />
      <path
         d="m 37891.3,13113.3 c 0,-1041.3 -844.2,-1885.5 -1885.5,-1885.5 -1041.3,0 -1885.4,844.2 -1885.4,1885.5 0,1041.3 844.1,1885.5 1885.4,1885.5 1041.3,0 1885.5,-844.2 1885.5,-1885.5"
         style="fill:#638c80;fill-opacity:1;fill-rule:nonzero;stroke:none"
         id="path310" />
      <path
         d="m 37593.2,13113.3 c 0,-876.7 -710.7,-1587.4 -1587.4,-1587.4 -876.6,0 -1587.3,710.7 -1587.3,1587.4 0,876.6 710.7,1587.3 1587.3,1587.3 876.7,0 1587.4,-710.7 1587.4,-1587.3"
         style="fill:#fffbf8;fill-opacity:1;fill-rule:nonzero;stroke:none"
         id="path312" />
      <path
         d="m 36021.9,13097.2 h -870.2 v 32.2 h 838 v 1474.5 h 32.2 v -1506.7"
         style="fill:#0f0111;fill-opacity:1;fill-rule:nonzero;stroke:none"
         id="path314" />
      <path
         d="m 36005.8,11211.7 c -507.9,0 -985.4,197.8 -1344.6,557 -359.1,359.1 -557,836.7 -557,1344.6 0,507.9 197.9,985.4 557,1344.6 359.2,359.2 836.7,557 1344.6,557 v -32.3 c -1030.7,0 -1869.3,-838.6 -1869.3,-1869.3 0,-1030.8 838.6,-1869.4 1869.3,-1869.4 v -32.2"
         style="fill:#0f0111;fill-opacity:1;fill-rule:nonzero;stroke:none"
         id="path316" />
      <path
         d="m 36005.8,11211.7 v 32.2 c 1030.8,0 1869.4,838.6 1869.4,1869.4 h 32.2 c 0,-507.9 -197.8,-985.5 -557,-1344.6 -359.1,-359.2 -836.6,-557 -1344.6,-557"
         style="fill:#0f0111;fill-opacity:1;fill-rule:nonzero;stroke:none"
         id="path318" />
      <path
         d="m 23703.7,10013.8 c -215.6,0 -391,-175.4 -391,-391 V 8569.4 c 0,-215.6 175.4,-391 391,-391 h 2750.4 l 634.4,-634.4 v 634.4 h 79 c 215.5,0 390.9,175.4 390.9,391 v 1053.4 c 0,215.6 -175.4,391 -390.9,391 z m 3418,-2549.9 -681.3,681.3 h -2736.7 c -233.9,0 -424.2,190.3 -424.2,424.2 v 1053.4 c 0,233.9 190.3,424.2 424.2,424.2 h 3463.8 c 233.8,0 424.1,-190.3 424.1,-424.2 V 8569.4 c 0,-233.9 -190.3,-424.2 -424.1,-424.2 h -45.8 v -681.3"
         style="fill:#0f0111;fill-opacity:1;fill-rule:nonzero;stroke:none"
         id="path320" />
      <path
         d="m 24296.7,9190.1 c -76.2,0 -138.2,-62 -138.2,-138.2 0,-76.2 62,-138.2 138.2,-138.2 76.2,0 138.2,62 138.2,138.2 0,76.2 -62,138.2 -138.2,138.2 z m 0,-309.6 c -94.5,0 -171.3,76.9 -171.3,171.4 0,94.5 76.8,171.4 171.3,171.4 94.5,0 171.4,-76.9 171.4,-171.4 0,-94.5 -76.9,-171.4 -171.4,-171.4"
         style="fill:#0f0111;fill-opacity:1;fill-rule:nonzero;stroke:none"
         id="path322" />
      <path
         d="m 25435.6,9190.1 c -76.3,0 -138.3,-62 -138.3,-138.2 0,-76.2 62,-138.2 138.3,-138.2 76.2,0 138.2,62 138.2,138.2 0,76.2 -62,138.2 -138.2,138.2 z m 0,-309.6 c -94.5,0 -171.4,76.9 -171.4,171.4 0,94.5 76.9,171.4 171.4,171.4 94.4,0 171.3,-76.9 171.3,-171.4 0,-94.5 -76.9,-171.4 -171.3,-171.4"
         style="fill:#0f0111;fill-opacity:1;fill-rule:nonzero;stroke:none"
         id="path324" />
      <path
         d="m 26563.3,9190.1 c -76.2,0 -138.2,-62 -138.2,-138.2 0,-76.2 62,-138.2 138.2,-138.2 76.2,0 138.2,62 138.2,138.2 0,76.2 -62,138.2 -138.2,138.2 z m 0,-309.6 c -94.5,0 -171.4,76.9 -171.4,171.4 0,94.5 76.9,171.4 171.4,171.4 94.5,0 171.4,-76.9 171.4,-171.4 0,-94.5 -76.9,-171.4 -171.4,-171.4"
         style="fill:#0f0111;fill-opacity:1;fill-rule:nonzero;stroke:none"
         id="path326" />
    </g>
  </g>
</svg>
