<?xml version="1.0" encoding="UTF-8" standalone="no" ?>
<!DOCTYPE svg PUBLIC "-//W3C//DTD SVG 1.1//EN" "http://www.w3.org/Graphics/SVG/1.1/DTD/svg11.dtd">
<svg xmlns="http://www.w3.org/2000/svg" xmlns:xlink="http://www.w3.org/1999/xlink" version="1.1" width="1080" height="1080" viewBox="0 0 1080 1080" xml:space="preserve">
<desc>Created with Fabric.js 5.2.4</desc>
<defs>
</defs>
<g transform="matrix(1 0 0 1 540 540)" id="6daa3924-595a-4278-9cae-fc9142869903"  >
</g>
<g transform="matrix(1 0 0 1 540 540)" id="14b30494-93eb-42d9-b55d-83c24a74781f"  >
<rect style="stroke: none; stroke-width: 1; stroke-dasharray: none; stroke-linecap: butt; stroke-dashoffset: 0; stroke-linejoin: miter; stroke-miterlimit: 4; fill: rgb(255,255,255); fill-rule: nonzero; opacity: 1; visibility: hidden;" vector-effect="non-scaling-stroke"  x="-540" y="-540" rx="0" ry="0" width="1080" height="1080" />
</g>
<g transform="matrix(1 0 0 1 540 540)"  >
<g style="" vector-effect="non-scaling-stroke"   >
		<g transform="matrix(1 0 0 1 -173.32 0)"  >
<path style="stroke: none; stroke-width: 1; stroke-dasharray: none; stroke-linecap: butt; stroke-dashoffset: 0; stroke-linejoin: miter; stroke-miterlimit: 4; fill: rgb(255,255,255); fill-rule: nonzero; opacity: 1;" vector-effect="non-scaling-stroke"  transform=" translate(-342.65, -539.97)" d="M 449.54 554.67 C 448.6859054081727 552.0554704013739 446.9595667720163 549.8137014157719 444.65000000000003 548.3199999999999 L 435.16 541.6099999999999 L 412.53000000000003 525.6099999999999 L 385.08000000000004 506.1999999999999 L 361.44000000000005 489.4999999999999 C 357.84000000000003 486.9499999999999 354.22 484.4299999999999 350.64000000000004 481.8599999999999 C 350.07060568268184 481.35727234180604 349.52976181893996 480.82310556280174 349.02000000000004 480.2599999999999 C 348.65000000000003 479.6899999999999 348.31000000000006 479.1099999999999 348.02000000000004 478.5099999999999 C 347.77908246893867 477.79943092185545 347.58204469290973 477.07473266086754 347.43000000000006 476.33999999999986 C 347.3900090134368 475.60387607507744 347.3900090134368 474.8661239249223 347.43000000000006 474.1299999999999 C 347.5806878246632 473.41005870092033 347.7709769334519 472.69897834702584 348 472 C 348.31 471.4 348.65 470.82 349 470.25 C 349.46146401178515 469.74193500508255 349.94877546793333 469.25796129863403 350.46 468.8 C 351.65999999999997 468 352.93 467.3 354.18 466.57 L 363 461.4 L 390 445.54 L 416.78 429.83000000000004 C 422.2 426.66 428.47999999999996 423.69000000000005 433.01 419.27000000000004 C 440.7278400870511 411.59628507955364 443.63211678638254 400.31679565282377 440.58 389.87000000000006 C 439.3990109856897 386.24069610532956 437.63235625759853 382.82899194591823 435.34999999999997 379.77000000000004 C 431.7706795777615 374.650456553832 426.7418033988899 370.7185997630107 420.90999999999997 368.48 C 412.67999999999995 365.23 402.77 366.48 395.30999999999995 371.09000000000003 L 392.56999999999994 372.84000000000003 L 376.7199999999999 382.92 L 351.7199999999999 398.84000000000003 L 323.13 417 L 296.3 434.06 L 276.85 446.42 C 272.85 448.94 268.53000000000003 451.35 265.13 454.6 C 257.59 461.79 254.82999999999998 472.68 257.06 482.71000000000004 C 258.26042347519274 487.62437082529453 260.7015748059433 492.14859205040915 264.15 495.85 C 265.7539259900019 497.4993754600322 267.51945276317787 498.98348999611744 269.41999999999996 500.28000000000003 Q 273.67999999999995 503.42 277.97999999999996 506.51000000000005 Q 287.28 513.3100000000001 296.59999999999997 520.08 L 321.65999999999997 538.34 Q 335.45 548.34 349.23999999999995 558.4300000000001 L 375.52 577.58 L 396.59 592.9300000000001 L 408.83 601.85 L 409.53 602.37 C 410.1249253383564 602.8866841496458 410.68921637547425 603.4376191858852 411.21999999999997 604.02 C 411.6057300294583 604.6072098595527 411.959575150221 605.2147552555791 412.28 605.84 C 412.50962784316164 606.5286370354504 412.69993466371653 607.2297674269685 412.84999999999997 607.94 C 412.8899728303187 608.696138750203 412.8899728303187 609.4538612497971 412.84999999999997 610.21 C 412.68999999999994 610.9200000000001 412.49999999999994 611.63 412.27 612.33 C 412.04 613.0300000000001 411.59 613.5500000000001 411.2 614.14 C 410.7518210589888 614.6315108941573 410.2778182797108 615.0988375779524 409.78 615.54 C 408.45 616.42 407.03999999999996 617.18 405.66999999999996 617.9699999999999 L 396.35999999999996 623.31 L 365.05999999999995 641.31 L 326.9 663.15 L 293.9 682.0799999999999 C 288.75 685.0799999999999 283.62 688.0799999999999 278.45 690.9499999999999 C 278.15 691.1199999999999 277.84 691.28 277.53 691.4399999999999 C 276.83 691.67 276.13 691.8599999999999 275.40999999999997 692.02 C 274.68999999999994 692.1800000000001 273.96999999999997 692.02 273.24999999999994 692.02 C 272.51294009180646 691.8598852831998 271.78518700412684 691.6595862682422 271.06999999999994 691.42 C 270.4630393571234 691.1176212325927 269.87223915212394 690.7838358060393 269.29999999999995 690.42 C 268.76621053530846 689.9412022046383 268.2587977953616 689.4337894646915 267.78 688.9 C 267.3958890479491 688.3186643491168 267.04208369805883 687.7178628115673 266.71999999999997 687.1 C 266.4917076016554 686.4135105506231 266.298129144152 685.7159605916887 266.14 685.01 C 266.1000023719164 684.2605332700841 266.1000023719164 683.5094667299159 266.14 682.76 C 266.2968244700221 682.0461295454456 266.49380420966236 681.3416765782576 266.72999999999996 680.65 C 267.2789856411865 679.3499865465712 268.1537934410067 678.2134252318442 269.27 677.35 C 272.75 674.86 276.53999999999996 672.7 280.13 670.41 L 304.65999999999997 654.77 L 329.65999999999997 638.84 C 333.48999999999995 636.4 337.34 633.99 341.14 631.51 C 349.47253483622194 626.2360001722747 354.70046825664247 617.2215492602068 355.14 607.37 C 355.4439131385846 597.8300840755414 351.0867276194456 588.7389358648036 343.46 583 C 340.22999999999996 580.51 336.88 578.17 333.58 575.78 L 312.71 560.67 L 287.17999999999995 542.17 L 264.34 525.63 L 251.95 516.63 L 251.36999999999998 516.21 C 249.26999999999998 514.69 245.57999999999998 514.48 243.17999999999998 515.14 C 240.51403927757391 515.8994245300058 238.23893608703784 517.648678398201 236.81999999999996 520.03 C 235.38479673620077 522.5078605453032 234.99955361555988 525.4565905995545 235.74999999999997 528.22 C 236.61571317189387 530.8310129102698 238.3390918473422 533.0724624758836 240.63999999999996 534.58 L 249.63999999999996 541.11 L 271.42999999999995 556.89 L 297.62999999999994 575.89 L 320.22999999999996 592.27 C 323.64 594.74 327.03999999999996 597.27 330.46 599.68 C 331.04931728659415 600.1993316152231 331.61013521042264 600.7501349332688 332.14 601.3299999999999 C 332.5052724668065 601.8979353208109 332.8391075744628 602.4854851102859 333.14 603.0899999999999 C 333.37 603.79 333.57 604.4899999999999 333.72999999999996 605.2099999999999 C 333.7699939476477 605.9761450854116 333.7699939476477 606.7438549145882 333.72999999999996 607.5099999999999 C 333.56999999999994 608.2299999999999 333.36999999999995 608.9399999999998 333.14 609.6399999999999 C 332.91 610.3399999999999 332.47999999999996 610.8299999999999 332.14 611.3999999999999 C 331.6344494556504 611.9572434501159 331.1004020629616 612.4879530466004 330.53999999999996 612.9899999999999 C 326.7 615.7299999999999 322.53999999999996 618.0799999999999 318.53999999999996 620.6099999999999 L 291.85999999999996 637.6099999999999 L 266.71999999999997 653.6099999999999 C 259.96999999999997 657.9099999999999 252.83999999999997 661.8 248.71999999999997 669.0399999999998 C 243.48999999999998 678.2199999999998 243.44999999999996 690.1799999999998 249.13999999999996 699.1799999999998 C 254.82999999999996 708.1799999999998 265.80999999999995 714.4099999999999 276.78 713.0999999999998 C 281.43358697952357 712.6017205861478 285.93418949757427 711.1480463991528 290 708.83 L 294.69 706.14 L 313.44 695.38 L 340.17 680.05 L 369.48 663.2299999999999 L 395.87 648.0899999999999 L 414.22 637.5699999999999 L 418.66 635.02 C 422.80572171874354 632.6359331332307 426.3820435352021 629.3769757527746 429.14000000000004 625.47 C 437.43802446256444 613.1315689148173 435.23299599302067 596.5423761293588 424 586.8 C 423 585.9699999999999 421.91 585.16 420.84 584.38 Q 416.25 581.02 411.64 577.68 L 392.64 563.8599999999999 L 367.64 545.6199999999999 L 340.40999999999997 525.7899999999998 L 314.40999999999997 506.86999999999983 L 293.54999999999995 491.67999999999984 L 281.54999999999995 482.90999999999985 L 280.88999999999993 482.42999999999984 C 280.2915106263283 481.90314385274655 279.72390172165296 481.3422126998909 279.18999999999994 480.74999999999983 C 278.31370662420073 479.6242454819858 277.75438799780943 478.28464284593747 277.56999999999994 476.86999999999983 C 277.5250012345678 476.1073298398839 277.5250012345678 475.34267016011574 277.56999999999994 474.5799999999998 C 277.72999999999996 473.8599999999998 277.92999999999995 473.1499999999998 278.1599999999999 472.4499999999998 C 278.3899999999999 471.74999999999983 278.81999999999994 471.2599999999998 279.1599999999999 470.6899999999998 C 279.6656300414492 470.1359982393087 280.1996821903546 469.60862174226463 280.75999999999993 469.10999999999984 C 284.75999999999993 466.29999999999984 289.00999999999993 463.8799999999998 293.0899999999999 461.27999999999986 L 323.37 442 L 360.08 418.65 L 391.53999999999996 398.65 C 396.36999999999995 395.58 401.16999999999996 392.46 406.03 389.44 Q 406.84 388.93 407.67999999999995 388.51 C 408.37999999999994 388.28 409.0799999999999 388.09 409.79999999999995 387.93 C 410.52 387.77000000000004 411.19999999999993 387.93 411.9 387.93 C 412.6 387.93 413.34 388.28000000000003 414.04999999999995 388.51 C 414.6965422174205 388.84158949895544 415.3241748381561 389.2088213515135 415.92999999999995 389.61 C 416.48985785985826 390.1198619903568 417.0206907874589 390.66071063357253 417.5199999999999 391.23 C 418.41897758375023 392.4703987925634 419.227724011646 393.77375047388296 419.93999999999994 395.13 C 420.1499999999999 395.78 420.3299999999999 396.43 420.47999999999996 397.13 C 420.52500931622404 397.8826610417801 420.52500931622404 398.63733895821986 420.47999999999996 399.39 C 420.3291892629053 400.10863409519044 420.13211223403465 400.81677528367493 419.89 401.51 C 419.5898488990798 402.12137408686624 419.2560023275138 402.71562098425375 418.89 403.28999999999996 C 418.4037716534684 403.8362338590127 417.8862338590127 404.3537716534684 417.34 404.84 C 413.59 407.42999999999995 409.4 409.53 405.5 411.84 L 379.4 427.09 L 352.94 442.60999999999996 C 348.85 445.00999999999993 344.74 447.35999999999996 340.68 449.79999999999995 C 332.147354597416 454.93098623923026 326.7040907682241 463.94943367012655 326.14 473.88999999999993 C 325.9260499051392 478.7961215978011 326.9327962258043 483.6786694533131 329.07 488.0999999999999 C 331.12 492.7399999999999 334.65999999999997 496.3399999999999 338.65999999999997 499.3399999999999 C 341.65999999999997 501.62999999999994 344.89 503.7699999999999 348.01 505.9699999999999 L 369.71999999999997 521.3199999999999 L 396.48999999999995 540.2299999999999 L 420.34 557.0899999999999 L 433.34 566.2599999999999 L 433.95 566.6899999999998 C 436.09 568.1999999999998 439.71 568.4299999999998 442.14 567.7599999999999 C 444.80596072242605 567.000575469994 447.0810639129621 565.251321601799 448.5 562.8699999999999 C 449.92671320525994 560.3848611519674 450.30114339721007 557.4326231000531 449.54 554.67 Z" stroke-linecap="round" />
</g>
		<g transform="matrix(1 0 0 1 36.19 -60.44)"  >
<path style="stroke: none; stroke-width: 1; stroke-dasharray: none; stroke-linecap: butt; stroke-dashoffset: 0; stroke-linejoin: miter; stroke-miterlimit: 4; fill: rgb(255,255,255); fill-rule: nonzero; opacity: 1;" vector-effect="non-scaling-stroke"  transform=" translate(-552.16, -479.53)" d="M 520.5 482.7 L 577.7 482.7 C 576.34 495.44 564.7 505.5 550.82 505.5 C 541.9344995791066 505.603044799484 533.5507958108283 501.3906903049733 528.33 494.2 C 526.2182914982868 491.29437430622903 522.190927608865 490.57094859115216 519.2 492.56 C 517.784739253488 493.56782207542415 516.8310609438172 495.0995594145035 516.5512173059907 496.8143060006491 C 516.2713736681641 498.5290525867946 516.6885864215537 500.2845169449277 517.71 501.69 C 525.400747506905 512.2911007075236 537.7231273092686 518.5434710089344 550.82 518.49 C 573 518.49 591 501.21 591 479.9 L 590.86 475.97999999999996 C 590.7726585091756 472.43632143372486 587.8338908458423 469.63174407465334 584.29 469.71 L 528.68 469.71 C 531.7216454428149 462.7332018868066 537.7024454819144 457.4658614909217 545.0076413016213 455.33011034722733 C 552.3128371213282 453.19435920353294 560.1891313985196 454.4104317395665 566.51 458.65 C 567.9968595702717 459.74305613631793 569.8654901403851 460.1817750042664 571.6834392529167 459.8646250033263 C 573.5013883654484 459.5474750023862 575.1110845931314 458.50194522890314 576.14 456.96999999999997 C 578.1886007192766 453.80767317786143 577.36650969078 449.5911417736369 574.28 447.42999999999995 C 567.7735861119827 442.9440222467023 560.0529771013897 440.55073811598976 552.15 440.56999999999994 C 524.89 440.56999999999994 513.3399999999999 465.37999999999994 513.3399999999999 475.23999999999995 L 513.3399999999999 475.35999999999996 C 513.1907898497901 477.3503162968754 513.8464421017069 479.31727305262547 515.16 480.81999999999994 C 516.6122621532918 482.1434540393476 518.5389363217644 482.8217588027799 520.5 482.7 Z" stroke-linecap="round" />
</g>
		<g transform="matrix(1 0 0 1 142.48 -60.41)"  >
<path style="stroke: none; stroke-width: 1; stroke-dasharray: none; stroke-linecap: butt; stroke-dashoffset: 0; stroke-linejoin: miter; stroke-miterlimit: 4; fill: rgb(255,255,255); fill-rule: nonzero; opacity: 1;" vector-effect="non-scaling-stroke"  transform=" translate(-658.46, -479.55)" d="M 611.13 518.49 C 614.920294416817 518.4900040154082 617.9944828320009 515.4202904014109 618 511.63 L 618 471 C 618.2224572859154 461.8839999767433 625.6762860737891 454.60984753262585 634.7950000000001 454.60984753262585 C 643.9137139262109 454.60984753262585 651.3675427140846 461.8839999767433 651.59 471 L 651.59 511.68 C 651.7308417546734 515.3695434959985 654.7627692909673 518.2879408463727 658.455 518.2879408463727 C 662.1472307090328 518.2879408463727 665.1791582453267 515.3695434959985 665.32 511.68 L 665.32 471 C 665.32 461.72161620284265 672.8416162028427 454.2 682.1200000000001 454.2 C 691.3983837971574 454.2 698.9200000000001 461.72161620284265 698.9200000000001 471 L 698.9200000000001 511.68 C 698.9255171679991 515.4702904014108 701.9997055831831 518.5400040154082 705.7900000000001 518.54 C 709.5338355564332 518.4905935644758 712.533362707331 515.4240129005178 712.5000000000001 511.67999999999995 L 712.5000000000001 471 C 712.4701858776527 458.14383367705256 704.3589729498021 446.6954019429984 692.2400148912161 442.404393089662 C 680.1210568326301 438.1133842363256 666.6130288897641 441.9070032768964 658.5000000000001 451.88 C 650.3992032225171 441.8450380024927 636.8510749517256 438.00877460170915 624.6917428429747 442.30691529165773 C 612.5324107342237 446.6050559816063 604.4048207104141 458.10335920107667 604.41 471 L 604.41 511.68 C 604.4042590589161 515.4084100088604 607.40184354993 518.4461407207363 611.13 518.49 Z" stroke-linecap="round" />
</g>
		<g transform="matrix(1 0 0 1 53.86 60.77)"  >
<path style="stroke: none; stroke-width: 1; stroke-dasharray: none; stroke-linecap: butt; stroke-dashoffset: 0; stroke-linejoin: miter; stroke-miterlimit: 4; fill: rgb(255,255,255); fill-rule: nonzero; opacity: 1;" vector-effect="non-scaling-stroke"  transform=" translate(-569.83, -600.74)" d="M 620.12 562.9 L 620.12 562.9 C 618.531946490677 562.0853700059564 616.6828041989692 561.9443573387899 614.9895876215339 562.5087628646017 C 613.2963710440987 563.0731683904135 611.9016648110323 564.2954638991713 611.12 565.9 L 585.24 617.51 L 559.5 565.9 C 558.6842833581638 564.283775064071 557.2585827464733 563.0588767170611 555.5379157958888 562.4959540505668 C 553.8172488453042 561.9330313840724 551.9432531517934 562.078421670493 550.33 562.9 C 548.7274285499984 563.6837516348638 547.5069592071737 565.0785308200293 546.9428225324651 566.770940844155 C 546.3786858577566 568.4633508682807 546.5181938209171 570.3114558221079 547.33 571.9 L 562.2700000000001 601.9 L 554.44 617.4399999999999 L 528.7 565.8199999999999 C 527.8822768129658 564.2057053272192 526.4565133781938 562.9825739720998 524.7366230982565 562.4199053963296 C 523.0167328183192 561.8572368205595 521.1437308262887 562.00116465546 519.5300000000001 562.8199999999999 C 517.9274285499985 563.6037516348638 516.7069592071738 564.9985308200293 516.1428225324652 566.690940844155 C 515.5786858577567 568.3833508682807 515.7181938209171 570.2314558221078 516.5300000000001 571.8199999999999 L 548.3600000000001 635.6299999999999 C 549.547761076313 637.8538358904226 551.8396284333406 639.267154093923 554.3600000000001 639.3299999999999 C 556.9355459470528 639.3393812919949 559.2912666645108 637.8801539612466 560.4300000000002 635.5699999999999 L 569.83 617 L 579.1800000000001 635.7 C 580.367761076313 637.9238358904228 582.6596284333406 639.3371540939231 585.1800000000001 639.4000000000001 C 587.7679565072427 639.4540221231459 590.1457075593597 637.9811483248 591.2500000000001 635.6400000000001 L 623.1900000000002 571.8900000000001 C 624.8054400768586 568.5585152898549 623.4357289522604 564.5475371106573 620.12 562.9 Z" stroke-linecap="round" />
</g>
		<g transform="matrix(1 0 0 1 150.42 60.54)"  >
<path style="stroke: none; stroke-width: 1; stroke-dasharray: none; stroke-linecap: butt; stroke-dashoffset: 0; stroke-linejoin: miter; stroke-miterlimit: 4; fill: rgb(255,255,255); fill-rule: nonzero; opacity: 1;" vector-effect="non-scaling-stroke"  transform=" translate(-666.39, -600.51)" d="M 666.68 561.51 C 647.7060553338357 561.3686977797719 631.3838337050996 574.9036635708505 628.010753580475 593.5759123102222 C 624.6376734558504 612.2481610495938 635.1927095207166 630.6384147599869 653.0168648711527 637.1445678903412 C 670.8410202215889 643.6507210206955 690.7611604428629 636.3844818677339 700.2099999999999 619.93 C 701.1377736741276 618.2801157630265 701.3578332167315 616.324832613989 700.8199999999999 614.51 C 700.338754468857 612.8657036807252 699.1985533201106 611.493842616043 697.67 610.72 C 694.4710035120956 608.9032579826394 690.4078181819682 609.9466875124654 688.4799999999999 613.08 C 682.828957052358 622.9945856232637 671.2107121803118 627.8616006510198 660.1803663335984 624.9350386784981 C 649.150020486885 622.0084767059765 641.4726972458191 612.0219779682096 641.4799999999999 600.61 C 641.3343980501402 587.7901901579055 650.862610378377 576.9161343373689 663.5904606885866 575.37647502565 C 676.3183109987962 573.8368157139311 688.1645665361023 582.1252504217005 691.0799999999999 594.61 L 658 594.61 C 656.2909777443061 594.6305022002068 654.6623771231192 595.3390732012505 653.4823880829352 596.5755210471848 C 652.3023990427513 597.8119688931192 651.6706625472705 599.4718851100193 651.73 601.1800000000001 C 651.73 604.6428253814391 654.5371746185609 607.45 658 607.45 L 698.67 607.45 C 702.3423826310553 607.2266561363142 705.2477687224932 604.2564176767639 705.39 600.58 C 705.34 579.05 688 561.51 666.68 561.51 Z" stroke-linecap="round" />
</g>
		<g transform="matrix(1 0 0 1 241.71 44.51)"  >
<path style="stroke: none; stroke-width: 1; stroke-dasharray: none; stroke-linecap: butt; stroke-dashoffset: 0; stroke-linejoin: miter; stroke-miterlimit: 4; fill: rgb(255,255,255); fill-rule: nonzero; opacity: 1;" vector-effect="non-scaling-stroke"  transform=" translate(-757.68, -584.48)" d="M 757.75 561.51 C 748.487108251976 561.5188860231378 739.5348019693627 564.8507193958584 732.52 570.9 L 732.52 536.28 C 732.3791582453266 532.5904565040014 729.3472307090327 529.6720591536273 725.655 529.6720591536273 C 721.9627692909672 529.6720591536273 718.9308417546733 532.5904565040014 718.79 536.28 L 718.79 600.61 C 718.9058410536529 622.046302342133 736.3461417214007 639.3466179930067 757.7826815133349 639.2897057634557 C 779.2192213052689 639.2327935339048 796.56741496621 621.8401173251151 796.5694319908474 600.4035020795906 C 796.5714490154849 578.9668868340659 779.2265287023342 561.5709462635832 757.79 561.51 Z M 757.75 625.84 C 747.4594666767503 625.8925313375458 738.1557498204395 619.7260520748848 734.1953097989857 610.2280127795984 C 730.2348697775319 600.729973484312 732.4016998079812 589.780568867696 739.6811829047291 582.5068516981535 C 746.9606660014771 575.2331345286109 757.911784161338 573.0749814089288 767.4066822502145 577.0429463659548 C 776.9015803390911 581.0109113229807 783.0606854666228 590.3195115328534 783 600.61 C 782.9889604885711 614.5473788077279 771.6873831798116 625.8400043720844 757.75 625.84 Z" stroke-linecap="round" />
</g>
</g>
</g>
</svg>