<svg width="78" height="70" viewBox="0 0 78 70" fill="none" xmlns="http://www.w3.org/2000/svg">
<path fill-rule="evenodd" clip-rule="evenodd" d="M51.1843 53.3275L20.7878 53.3275L20.7878 50.762L51.1843 50.762L51.1843 53.3275Z" fill="#f43534"/>
<path fill-rule="evenodd" clip-rule="evenodd" d="M38.1331 57.6779H34.229V55.1123H38.1331V57.6779Z" fill="#f43534"/>
<path fill-rule="evenodd" clip-rule="evenodd" d="M38.1331 15.067H34.229V12.5015H38.1331V15.067Z" fill="#f43534"/>
<path fill-rule="evenodd" clip-rule="evenodd" d="M17.5529 36.2608C21.4032 36.2608 24.5245 33.1395 24.5245 29.2892C24.5245 25.4388 21.4032 22.3175 17.5529 22.3175C13.7025 22.3175 10.5812 25.4388 10.5812 29.2892C10.5812 33.1395 13.7025 36.2608 17.5529 36.2608ZM17.5529 38.8264C22.8201 38.8264 27.0901 34.5564 27.0901 29.2892C27.0901 24.0219 22.8201 19.752 17.5529 19.752C12.2856 19.752 8.01562 24.0219 8.01562 29.2892C8.01562 34.5564 12.2856 38.8264 17.5529 38.8264Z" fill="#f43534"/>
<path fill-rule="evenodd" clip-rule="evenodd" d="M19.8955 8.20691H52.4671V21.3694H49.9015V10.7725H22.4611H19.8955L19.8955 8.20691ZM22.4611 59.2952V50.5946H19.8955L19.8955 61.8608H52.4671V51.2081H49.9015V59.2952H22.4611Z" fill="#f43534"/>
<path fill-rule="evenodd" clip-rule="evenodd" d="M71.3328 38.4902C70.6384 42.668 68.1493 46.5138 64.1953 48.7967C57.1795 52.8473 48.2085 50.4435 44.1579 43.4277C40.1073 36.4119 42.5111 27.4409 49.5269 23.3903C53.5129 21.089 58.1301 20.8711 62.1174 22.3988L63.0455 20.0068C58.3588 18.2083 52.9302 18.463 48.2441 21.1685C40.0012 25.9275 37.177 36.4676 41.9361 44.7105C46.6951 52.9533 57.2352 55.7776 65.4781 51.0185C70.1322 48.3315 73.0588 43.8014 73.8684 38.8824L71.3328 38.4902ZM65.9306 37.6545C65.4818 40.2534 63.9249 42.6414 61.4624 44.0632C57.0609 46.6044 51.4326 45.0963 48.8914 40.6948C46.3502 36.2933 47.8583 30.6651 52.2598 28.1238C54.7346 26.695 57.5973 26.5463 60.081 27.4723C60.1008 27.4797 60.1205 27.4871 60.1402 27.4946L59.2121 29.8866C57.4142 29.2068 55.337 29.3097 53.5426 30.3457C50.3681 32.1784 49.2805 36.2376 51.1133 39.412C52.946 42.5865 57.0052 43.6741 60.1796 41.8413C61.9421 40.8238 63.0613 39.1199 63.3945 37.2622L65.9306 37.6545Z" fill="#f43534"/>
<path fill-rule="evenodd" clip-rule="evenodd" d="M19.8955 21.2021L19.8955 8.37427L22.4611 8.37427L22.4611 21.2021L19.8955 21.2021Z" fill="url(#paint0_linear)"/>
<path fill-rule="evenodd" clip-rule="evenodd" d="M22.4609 39.0496L22.4609 50.762L19.8954 50.762L19.8954 39.0496L22.4609 39.0496Z" fill="url(#paint1_linear)"/>
<g filter="url(#filter0_d)">
<ellipse cx="60.7818" cy="24.8138" rx="5.52156" ry="5.52155" fill="white"/>
</g>
<ellipse cx="60.7814" cy="24.8145" rx="2.20862" ry="2.20862" fill="#ff0000"/>
<g filter="url(#filter1_d)">
<ellipse cx="68.4786" cy="38.1448" rx="5.52155" ry="5.52155" fill="white"/>
</g>
<ellipse cx="68.4786" cy="38.1454" rx="2.20862" ry="2.20862" fill="#ff0000"/>
<g filter="url(#filter2_d)">
<ellipse cx="9.52155" cy="29.5123" rx="5.52155" ry="5.52155" fill="white"/>
</g>
<ellipse cx="9.52112" cy="29.5129" rx="2.20862" ry="2.20862" fill="#ff0000"/>
<defs>
<filter id="filter0_d" x="51.2603" y="17.2922" width="19.0431" height="19.0431" filterUnits="userSpaceOnUse" color-interpolation-filters="sRGB">
<feFlood flood-opacity="0" result="BackgroundImageFix"/>
<feColorMatrix in="SourceAlpha" type="matrix" values="0 0 0 0 0 0 0 0 0 0 0 0 0 0 0 0 0 0 127 0"/>
<feOffset dy="2"/>
<feGaussianBlur stdDeviation="2"/>
<feColorMatrix type="matrix" values="0 0 0 0 0 0 0 0 0 0 0 0 0 0 0 0 0 0 0.45 0"/>
<feBlend mode="normal" in2="BackgroundImageFix" result="effect1_dropShadow"/>
<feBlend mode="normal" in="SourceGraphic" in2="effect1_dropShadow" result="shape"/>
</filter>
<filter id="filter1_d" x="58.957" y="30.6233" width="19.0431" height="19.0431" filterUnits="userSpaceOnUse" color-interpolation-filters="sRGB">
<feFlood flood-opacity="0" result="BackgroundImageFix"/>
<feColorMatrix in="SourceAlpha" type="matrix" values="0 0 0 0 0 0 0 0 0 0 0 0 0 0 0 0 0 0 127 0"/>
<feOffset dy="2"/>
<feGaussianBlur stdDeviation="2"/>
<feColorMatrix type="matrix" values="0 0 0 0 0 0 0 0 0 0 0 0 0 0 0 0 0 0 0.45 0"/>
<feBlend mode="normal" in2="BackgroundImageFix" result="effect1_dropShadow"/>
<feBlend mode="normal" in="SourceGraphic" in2="effect1_dropShadow" result="shape"/>
</filter>
<filter id="filter2_d" x="0" y="21.9907" width="19.0431" height="19.0431" filterUnits="userSpaceOnUse" color-interpolation-filters="sRGB">
<feFlood flood-opacity="0" result="BackgroundImageFix"/>
<feColorMatrix in="SourceAlpha" type="matrix" values="0 0 0 0 0 0 0 0 0 0 0 0 0 0 0 0 0 0 127 0"/>
<feOffset dy="2"/>
<feGaussianBlur stdDeviation="2"/>
<feColorMatrix type="matrix" values="0 0 0 0 0 0 0 0 0 0 0 0 0 0 0 0 0 0 0.45 0"/>
<feBlend mode="normal" in2="BackgroundImageFix" result="effect1_dropShadow"/>
<feBlend mode="normal" in="SourceGraphic" in2="effect1_dropShadow" result="shape"/>
</filter>
<linearGradient id="paint0_linear" x1="21.2341" y1="8.37427" x2="21.2341" y2="21.2021" gradientUnits="userSpaceOnUse">
<stop offset="0.203125" stop-color="#f43534"/>
<stop offset="0.911458" stop-color="#f43534" stop-opacity="0"/>
</linearGradient>
<linearGradient id="paint1_linear" x1="21.1224" y1="50.762" x2="21.1224" y2="39.0496" gradientUnits="userSpaceOnUse">
<stop offset="0.203125" stop-color="#f43534"/>
<stop offset="0.911458" stop-color="#f43534" stop-opacity="0"/>
</linearGradient>
</defs>
</svg>
