<svg id="Layer_1" data-name="Layer 1" xmlns="http://www.w3.org/2000/svg" xmlns:xlink="http://www.w3.org/1999/xlink" viewBox="0 0 1080 1080"><defs><style>.cls-1{fill:url(#linear-gradient);}.cls-2{fill:#fff;}</style><linearGradient id="linear-gradient" x1="455.89" y1="405.61" x2="234.7" y2="678.76" gradientUnits="userSpaceOnUse"><stop offset="0" stop-color="#6ec3fc"/><stop offset="0.2" stop-color="#62a1fc"/><stop offset="0.64" stop-color="#434cfd"/><stop offset="1" stop-color="#2904fe"/></linearGradient></defs><title>SM WEB - LOGO</title><path class="cls-1" d="M449.54,554.67a12,12,0,0,0-4.89-6.35l-9.49-6.71-22.63-16-27.45-19.41-23.64-16.7c-3.6-2.55-7.22-5.07-10.8-7.64a20.38,20.38,0,0,1-1.62-1.6c-.37-.57-.71-1.15-1-1.75a18.32,18.32,0,0,1-.59-2.17,20.37,20.37,0,0,1,0-2.21A20,20,0,0,1,348,472c.31-.6.65-1.18,1-1.75a20,20,0,0,1,1.46-1.45c1.2-.8,2.47-1.5,3.72-2.23L363,461.4,390,445.54l26.78-15.71c5.42-3.17,11.7-6.14,16.23-10.56a29.71,29.71,0,0,0,7.57-29.4,35,35,0,0,0-5.23-10.1,31.31,31.31,0,0,0-14.44-11.29c-8.23-3.25-18.14-2-25.6,2.61l-2.74,1.75-15.85,10.08-25,15.92L323.13,417,296.3,434.06l-19.45,12.36c-4,2.52-8.32,4.93-11.72,8.18-7.54,7.19-10.3,18.08-8.07,28.11a29.57,29.57,0,0,0,7.09,13.14,34.36,34.36,0,0,0,5.27,4.43q4.26,3.14,8.56,6.23,9.3,6.8,18.62,13.57l25.06,18.26q13.79,10,27.58,20.09l26.28,19.15,21.07,15.35,12.24,8.92.7.52a20.27,20.27,0,0,1,1.69,1.65,19.58,19.58,0,0,1,1.06,1.82,19.16,19.16,0,0,1,.57,2.1,21.5,21.5,0,0,1,0,2.27c-.16.71-.35,1.42-.58,2.12s-.68,1.22-1.07,1.81a18.76,18.76,0,0,1-1.42,1.4c-1.33.88-2.74,1.64-4.11,2.43l-9.31,5.34-31.3,18L326.9,663.15l-33,18.93c-5.15,3-10.28,6-15.45,8.87-.3.17-.61.33-.92.49-.7.23-1.4.42-2.12.58s-1.44,0-2.16,0a20.69,20.69,0,0,1-2.18-.6,19.53,19.53,0,0,1-1.77-1,19.82,19.82,0,0,1-1.52-1.52,20.22,20.22,0,0,1-1.06-1.8,21.55,21.55,0,0,1-.58-2.09,21.11,21.11,0,0,1,0-2.25,19.43,19.43,0,0,1,.59-2.11,8.21,8.21,0,0,1,2.54-3.3c3.48-2.49,7.27-4.65,10.86-6.94l24.53-15.64,25-15.93c3.83-2.44,7.68-4.85,11.48-7.33a30.16,30.16,0,0,0,14-24.14A29.33,29.33,0,0,0,343.46,583c-3.23-2.49-6.58-4.83-9.88-7.22l-20.87-15.11-25.53-18.5-22.84-16.54-12.39-9-.58-.42c-2.1-1.52-5.79-1.73-8.19-1.07a10.87,10.87,0,0,0-6.36,4.89,10.73,10.73,0,0,0-1.07,8.19,12.19,12.19,0,0,0,4.89,6.36l9,6.53,21.79,15.78,26.2,19,22.6,16.38c3.41,2.47,6.81,5,10.23,7.41a21.8,21.8,0,0,1,1.68,1.65,18.46,18.46,0,0,1,1,1.76c.23.7.43,1.4.59,2.12a22.06,22.06,0,0,1,0,2.3c-.16.72-.36,1.43-.59,2.13s-.66,1.19-1,1.76a21.81,21.81,0,0,1-1.6,1.59c-3.84,2.74-8,5.09-12,7.62l-26.68,17-25.14,16c-6.75,4.3-13.88,8.19-18,15.43-5.23,9.18-5.27,21.14.42,30.14s16.67,15.23,27.64,13.92A34,34,0,0,0,290,708.83l4.69-2.69,18.75-10.76,26.73-15.33,29.31-16.82,26.39-15.14,18.35-10.52,4.44-2.55a32.91,32.91,0,0,0,10.48-9.55A29.44,29.44,0,0,0,424,586.8c-1-.83-2.09-1.64-3.16-2.42q-4.59-3.36-9.2-6.7l-19-13.82-25-18.24-27.23-19.83-26-18.92-20.86-15.19-12-8.77-.66-.48a20.74,20.74,0,0,1-1.7-1.68,8,8,0,0,1-1.62-3.88,19.44,19.44,0,0,1,0-2.29c.16-.72.36-1.43.59-2.13s.66-1.19,1-1.76a21.67,21.67,0,0,1,1.6-1.58c4-2.81,8.25-5.23,12.33-7.83L323.37,442l36.71-23.35,31.46-20c4.83-3.07,9.63-6.19,14.49-9.21q.81-.51,1.65-.93c.7-.23,1.4-.42,2.12-.58s1.4,0,2.1,0,1.44.35,2.15.58a19.63,19.63,0,0,1,1.88,1.1,20.26,20.26,0,0,1,1.59,1.62,32,32,0,0,1,2.42,3.9c.21.65.39,1.3.54,2a18.93,18.93,0,0,1,0,2.26,17.05,17.05,0,0,1-.59,2.12,18.41,18.41,0,0,1-1,1.78,18.89,18.89,0,0,1-1.55,1.55c-3.75,2.59-7.94,4.69-11.84,7L379.4,427.09l-26.46,15.52c-4.09,2.4-8.2,4.75-12.26,7.19a30.1,30.1,0,0,0-14.54,24.09,29.68,29.68,0,0,0,2.93,14.21c2.05,4.64,5.59,8.24,9.59,11.24,3,2.29,6.23,4.43,9.35,6.63l21.71,15.35,26.77,18.91,23.85,16.86,13,9.17.61.43c2.14,1.51,5.76,1.74,8.19,1.07a10.87,10.87,0,0,0,6.36-4.89A10.74,10.74,0,0,0,449.54,554.67Z"/><path class="cls-2" d="M520.5,482.7h57.2c-1.36,12.74-13,22.8-26.88,22.8a27.4,27.4,0,0,1-22.49-11.3,6.7,6.7,0,0,0-9.13-1.64,6.51,6.51,0,0,0-1.49,9.13,40.7,40.7,0,0,0,33.11,16.8C573,518.49,591,501.21,591,479.9l-.14-3.92a6.43,6.43,0,0,0-6.57-6.27H528.68a25.67,25.67,0,0,1,37.83-11.06,6.77,6.77,0,0,0,9.63-1.68,7,7,0,0,0-1.86-9.54,38.82,38.82,0,0,0-22.13-6.86c-27.26,0-38.81,24.81-38.81,34.67v.12a7.45,7.45,0,0,0,1.82,5.46A7.26,7.26,0,0,0,520.5,482.7Z"/><path class="cls-2" d="M611.13,518.49a6.87,6.87,0,0,0,6.87-6.86V471a16.8,16.8,0,0,1,33.59,0v40.68a6.87,6.87,0,0,0,13.73,0V471a16.8,16.8,0,0,1,33.6,0v40.68a6.87,6.87,0,0,0,6.87,6.86,6.8,6.8,0,0,0,6.71-6.86V471a30.41,30.41,0,0,0-54-19.12A30.42,30.42,0,0,0,604.41,471v40.68A6.8,6.8,0,0,0,611.13,518.49Z"/><path class="cls-2" d="M620.12,562.9h0a6.64,6.64,0,0,0-9,3l-25.88,51.61-25.74-51.61a6.81,6.81,0,0,0-9.17-3,6.65,6.65,0,0,0-3,9l14.94,30-7.83,15.54-25.74-51.62a6.82,6.82,0,0,0-9.17-3,6.65,6.65,0,0,0-3,9l31.83,63.81a7,7,0,0,0,6,3.7,6.74,6.74,0,0,0,6.07-3.76L569.83,617l9.35,18.7a7,7,0,0,0,6,3.7,6.56,6.56,0,0,0,6.07-3.76l31.94-63.75A6.75,6.75,0,0,0,620.12,562.9Z"/><path class="cls-2" d="M666.68,561.51a39,39,0,1,0,33.53,58.42,7,7,0,0,0,.61-5.42,6.2,6.2,0,0,0-3.15-3.79,6.83,6.83,0,0,0-9.19,2.36,25.15,25.15,0,0,1-47-12.47,25.13,25.13,0,0,1,49.6-6H658a6.35,6.35,0,0,0-6.27,6.57,6.27,6.27,0,0,0,6.27,6.27h40.67a7.16,7.16,0,0,0,6.72-6.87C705.34,579.05,688,561.51,666.68,561.51Z"/><path class="cls-2" d="M757.75,561.51a38.69,38.69,0,0,0-25.23,9.39V536.28a6.87,6.87,0,0,0-13.73,0v64.33a38.89,38.89,0,1,0,39-39.1Zm0,64.33A25.38,25.38,0,1,1,783,600.61,25.25,25.25,0,0,1,757.75,625.84Z"/></svg>